<svg width="28" height="34" viewBox="0 0 28 34" fill="none" xmlns="http://www.w3.org/2000/svg">
<path d="M22.7362 18.0684C22.7521 16.7805 23.0803 15.5178 23.6904 14.3976C24.3004 13.2775 25.1724 12.3364 26.2252 11.6618C25.5564 10.6664 24.674 9.84713 23.6483 9.2692C22.6225 8.69128 21.4816 8.37058 20.3161 8.33257C17.8299 8.0606 15.4197 9.88301 14.1527 9.88301C12.8613 9.88301 10.9107 8.35958 8.81016 8.40461C7.4515 8.45036 6.12739 8.86211 4.96682 9.59975C3.80626 10.3374 2.84882 11.3757 2.18781 12.6137C-0.675493 17.7802 1.46028 25.3733 4.20313 29.5496C5.57545 31.5946 7.17928 33.8789 9.27789 33.7979C11.3315 33.7091 12.0985 32.4332 14.5773 32.4332C17.0332 32.4332 17.7528 33.7979 19.894 33.7464C22.0976 33.7091 23.486 31.6923 24.8102 29.628C25.7962 28.1708 26.5549 26.5604 27.0582 24.8563C25.778 24.292 24.6855 23.3474 23.9169 22.1403C23.1483 20.9332 22.7377 19.5171 22.7362 18.0684Z" fill="white"/>
<path d="M18.6919 5.58598C19.8934 4.08279 20.4854 2.15069 20.342 0.199997C18.5064 0.400924 16.8108 1.31523 15.5931 2.76074C14.9977 3.46692 14.5417 4.28846 14.2511 5.1784C13.9606 6.06835 13.8412 7.00925 13.8997 7.94732C14.8179 7.95717 15.7262 7.74977 16.5563 7.34075C17.3864 6.93172 18.1166 6.33174 18.6919 5.58598Z" fill="white"/>
</svg>
