<svg width="283" height="360" viewBox="0 0 283 360" fill="none" xmlns="http://www.w3.org/2000/svg">
<path d="M45.0084 -19C18.3081 -9.61614 10.0508 13.2442 4.74874 39.6016C-3.10154 78.6263 6.22869 130.789 28.0683 164.25C47.8825 194.609 85.2638 200.389 116.522 184.499C139.587 172.773 156.298 150.08 162.41 125.093C165.32 113.199 161.265 99.9937 147.293 98.4175C128.663 96.3158 122.036 116.095 124.831 130.664C132.198 169.072 169.751 207.87 211.408 196.819C221.703 194.088 238.122 187.554 241.214 175.767C242.911 169.301 240.279 161.869 233.173 160.554C207.222 155.753 218.633 195.768 224.488 206.193C242.832 238.848 281.945 216.491 310.797 215.942C338.669 215.412 367.002 226.371 383.812 249.26C407.856 281.999 398.261 322.037 389.494 358" stroke="#0F9C8E" stroke-width="3" stroke-linecap="round" stroke-linejoin="round"/>
</svg>
