<svg width="31" height="34" viewBox="0 0 31 34" fill="none" xmlns="http://www.w3.org/2000/svg">
<path d="M14.733 16.2463L1.0813 31.0083C1.08258 31.0109 1.08258 31.0148 1.08386 31.0174C1.50315 32.6203 2.93922 33.8 4.64456 33.8C5.32669 33.8 5.96652 33.6119 6.5153 33.2827L6.5589 33.2565L21.9249 24.223L14.733 16.2463Z" fill="#EA4335"/>
<path d="M28.5436 13.7327L28.5308 13.7235L21.8966 9.80572L14.4226 16.5818L21.9235 24.2215L28.5218 20.3429C29.6783 19.7054 30.4643 18.463 30.4643 17.0312C30.4643 15.6073 29.6899 14.3715 28.5436 13.7327Z" fill="#FBBC04"/>
<path d="M1.08098 2.99064C0.998917 3.29894 0.955322 3.62292 0.955322 3.95735V30.0429C0.955322 30.3773 0.998917 30.7013 1.08226 31.0083L15.2019 16.6239L1.08098 2.99064Z" fill="#4285F4"/>
<path d="M14.8338 16.9999L21.8988 9.8031L6.55071 0.736917C5.99295 0.395956 5.34159 0.200001 4.64535 0.200001C2.94001 0.200001 1.50137 1.38226 1.08209 2.98648C1.08209 2.98779 1.08081 2.98909 1.08081 2.9904L14.8338 16.9999Z" fill="#34A853"/>
</svg>
