<svg width="329" height="379" viewBox="0 0 329 379" fill="none" xmlns="http://www.w3.org/2000/svg">
<path d="M-26.9916 2C-53.6919 11.3839 -61.9492 34.2442 -67.2513 60.6016C-75.1015 99.6263 -65.7713 151.789 -43.9317 185.25C-24.1175 215.609 13.2638 221.389 44.5217 205.499C67.5867 193.773 84.2976 171.08 90.4102 146.093C93.3201 134.199 89.2651 120.994 75.2928 119.417C56.6633 117.316 50.0362 137.095 52.8309 151.664C60.1981 190.072 97.7509 228.87 139.408 217.819C149.703 215.088 166.122 208.554 169.214 196.767C170.911 190.301 168.279 182.869 161.173 181.554C135.222 176.753 146.633 216.768 152.488 227.193C170.832 259.848 209.945 237.491 238.797 236.942C266.669 236.412 295.002 247.371 311.812 270.26C335.856 302.999 326.261 343.037 317.494 379" stroke="#0F9C8E" stroke-width="3" stroke-linecap="round" stroke-linejoin="round"/>
</svg>
