<svg width="32" height="32" viewBox="0 0 32 32" fill="none" xmlns="http://www.w3.org/2000/svg">
<path d="M22.6667 7.99999C22.6667 7.26364 22.0697 6.66666 21.3333 6.66666H4C3.26364 6.66666 2.66666 7.26364 2.66666 7.99999C2.66666 8.73634 3.26364 9.33332 4 9.33332H21.3333C22.0697 9.33332 22.6667 8.73629 22.6667 7.99999ZM4 14.6667H28C28.7363 14.6667 29.3333 15.2637 29.3333 16C29.3333 16.7363 28.7363 17.3333 28 17.3333H4C3.26364 17.3333 2.66666 16.7363 2.66666 16C2.66666 15.2637 3.26364 14.6667 4 14.6667ZM4 22.6667H16C16.7363 22.6667 17.3333 23.2636 17.3333 24C17.3333 24.7363 16.7363 25.3333 16 25.3333H4C3.26364 25.3333 2.66666 24.7363 2.66666 24C2.66666 23.2636 3.26364 22.6667 4 22.6667Z" fill="white"/>
</svg>
