<svg width="718" height="412" viewBox="0 0 718 412" fill="none" xmlns="http://www.w3.org/2000/svg">
<g opacity="0.65">
<path fill-rule="evenodd" clip-rule="evenodd" d="M557.63 66.0961L557.63 63.9427C556.447 63.8419 556.081 64.6574 556.301 66.0961L557.63 66.0961Z" fill="white"/>
<path fill-rule="evenodd" clip-rule="evenodd" d="M557.63 5.03994C557.822 4.84751 557.318 3.94949 556.97 4.33436C556.787 4.52679 557.3 5.42481 557.63 5.03994Z" fill="white"/>
<path fill-rule="evenodd" clip-rule="evenodd" d="M558.299 268.627C558.473 268.426 557.969 267.537 557.621 267.912C557.437 268.105 557.941 269.003 558.299 268.627Z" fill="white"/>
<path fill-rule="evenodd" clip-rule="evenodd" d="M559.618 10.7946C559.444 10.987 559.948 11.8759 560.287 11.5185C560.48 11.3078 559.976 10.4281 559.618 10.7946Z" fill="white"/>
<path d="M561.625 25.8776L561.625 24.439L560.287 24.439L560.287 25.8776L561.625 25.8776Z" fill="white"/>
<path fill-rule="evenodd" clip-rule="evenodd" d="M561.625 410.12C562.001 410.12 562.386 409.534 561.625 409.396C561.259 409.396 560.874 409.983 561.625 410.12Z" fill="white"/>
<path fill-rule="evenodd" clip-rule="evenodd" d="M561.625 166.647C562.001 166.647 562.386 166.061 561.625 165.923C561.259 165.923 560.874 166.5 561.625 166.647Z" fill="white"/>
<path fill-rule="evenodd" clip-rule="evenodd" d="M562.963 298.793C562.963 298.079 563.513 297.941 563.632 297.364C562.963 297.364 562.835 296.777 562.294 296.64C562.294 297.364 561.753 297.501 561.625 298.079C562.294 298.079 562.422 298.656 562.963 298.793Z" fill="white"/>
<path fill-rule="evenodd" clip-rule="evenodd" d="M562.294 234.154C562.707 234.319 563.733 233.073 563.632 232.725C563.092 230.828 559.875 233.183 562.294 234.154Z" fill="white"/>
<path fill-rule="evenodd" clip-rule="evenodd" d="M567.646 272.934C568.452 272.778 568.058 272.146 567.646 271.495C566.968 271.495 566.803 272.769 567.646 272.934Z" fill="white"/>
<path fill-rule="evenodd" clip-rule="evenodd" d="M568.975 336.144C569.891 336.364 570.258 337.17 571.66 336.858C572.723 334.861 568.773 334.879 568.975 336.144Z" fill="white"/>
<path fill-rule="evenodd" clip-rule="evenodd" d="M570.313 290.894C570.505 290.693 569.992 289.804 569.653 290.18C569.461 290.363 569.974 291.27 570.313 290.894Z" fill="white"/>
<path fill-rule="evenodd" clip-rule="evenodd" d="M575.655 366.31C575.839 366.108 575.335 365.219 574.996 365.586C574.803 365.778 575.316 366.676 575.655 366.31Z" fill="white"/>
<path fill-rule="evenodd" clip-rule="evenodd" d="M574.995 359.135L576.324 359.135L576.324 356.981C575.133 356.881 574.766 357.687 574.995 359.135Z" fill="white"/>
<path fill-rule="evenodd" clip-rule="evenodd" d="M576.993 273.667C577.177 273.465 576.673 272.577 576.324 272.934C576.141 273.145 576.654 274.034 576.993 273.667Z" fill="white"/>
<path fill-rule="evenodd" clip-rule="evenodd" d="M576.993 278.689C578.524 278.881 579.513 278.524 579.66 277.25C578.487 277.415 576.324 276.517 576.993 278.689Z" fill="white"/>
<path fill-rule="evenodd" clip-rule="evenodd" d="M576.993 142.95C579.623 145.076 581.575 141.447 582.345 139.358C579.193 139.092 577.763 140.65 576.993 142.95Z" fill="white"/>
<path fill-rule="evenodd" clip-rule="evenodd" d="M579.623 268.627C579.816 268.426 579.303 267.537 578.964 267.912C578.78 268.105 579.284 269.003 579.623 268.627Z" fill="white"/>
<path fill-rule="evenodd" clip-rule="evenodd" d="M584.352 299.508L583.014 299.508C580.787 300.837 585.021 303.018 584.352 299.508Z" fill="white"/>
<path fill-rule="evenodd" clip-rule="evenodd" d="M583.014 191.067C583.197 190.866 582.684 189.968 582.345 190.344C582.153 190.554 582.666 191.443 583.014 191.067Z" fill="white"/>
<path fill-rule="evenodd" clip-rule="evenodd" d="M583.683 273.667C583.866 273.465 583.362 272.577 583.014 272.934C582.822 273.145 583.326 274.034 583.683 273.667Z" fill="white"/>
<path fill-rule="evenodd" clip-rule="evenodd" d="M583.683 47.421C584.352 47.421 584.526 46.1564 583.683 45.9915C583.747 46.7887 582.703 47.1094 583.683 47.421Z" fill="white"/>
<path d="M584.352 38.7982L584.352 37.3687L583.014 37.3687L583.014 38.7982L584.352 38.7982Z" fill="white"/>
<path fill-rule="evenodd" clip-rule="evenodd" d="M586.35 311.723C586.533 311.521 586.029 310.633 585.681 311.008C585.497 311.21 586.001 312.099 586.35 311.723Z" fill="white"/>
<path fill-rule="evenodd" clip-rule="evenodd" d="M587.019 285.9C586.652 285.9 586.258 286.478 587.019 286.615C587.395 286.615 587.77 286.029 587.019 285.9Z" fill="white"/>
<path fill-rule="evenodd" clip-rule="evenodd" d="M587.019 61.0655C587.431 61.0655 587.807 61.1663 587.688 61.7894L589.026 61.7894C590.061 60.0208 586.753 59.6726 587.019 61.0655Z" fill="white"/>
<path fill-rule="evenodd" clip-rule="evenodd" d="M589.026 298.793C589.392 298.793 589.777 298.216 589.026 298.079C588.65 298.079 588.265 298.656 589.026 298.793Z" fill="white"/>
<path fill-rule="evenodd" clip-rule="evenodd" d="M589.704 165.199C589.887 165.007 589.374 164.127 589.035 164.493C588.851 164.686 589.356 165.575 589.704 165.199Z" fill="white"/>
<path fill-rule="evenodd" clip-rule="evenodd" d="M592.361 234.154C592.215 233.604 592.361 232.734 591.692 232.725C591.848 233.284 591.692 234.136 592.361 234.154Z" fill="white"/>
<path fill-rule="evenodd" clip-rule="evenodd" d="M593.03 252.115L594.368 252.115L594.368 249.961C593.168 249.87 592.801 250.667 593.03 252.115Z" fill="white"/>
<path fill-rule="evenodd" clip-rule="evenodd" d="M593.03 140.073C593.186 140.632 593.03 141.493 593.699 141.511C593.553 140.952 593.699 140.091 593.03 140.073Z" fill="white"/>
<path fill-rule="evenodd" clip-rule="evenodd" d="M595.706 303.824C596.073 303.824 596.458 303.247 595.706 303.1C595.33 303.1 594.946 303.687 595.706 303.824Z" fill="white"/>
<path fill-rule="evenodd" clip-rule="evenodd" d="M597.035 181.015C597.209 180.814 596.714 179.925 596.357 180.301C596.183 180.484 596.678 181.382 597.035 181.015Z" fill="white"/>
<path fill-rule="evenodd" clip-rule="evenodd" d="M597.704 378.516C597.896 378.314 597.392 377.425 597.044 377.801C596.852 378.002 597.356 378.891 597.704 378.516Z" fill="white"/>
<path fill-rule="evenodd" clip-rule="evenodd" d="M599.042 5.03994C599.225 4.84751 598.721 3.94949 598.373 4.33436C598.19 4.52679 598.694 5.42481 599.042 5.03994Z" fill="white"/>
<path fill-rule="evenodd" clip-rule="evenodd" d="M599.042 178.843L601.709 178.843C601.864 177.496 600.966 177.276 601.049 175.984C599.289 175.755 598.859 176.974 599.042 178.843Z" fill="white"/>
<path fill-rule="evenodd" clip-rule="evenodd" d="M600.38 312.474C601.168 312.364 602.277 312.603 602.387 311.76C601.974 311.714 601.599 311.65 601.709 311.045C600.902 311.127 600.132 311.265 600.38 312.474Z" fill="white"/>
<path fill-rule="evenodd" clip-rule="evenodd" d="M601.709 155.871C602.094 155.871 602.478 155.293 601.709 155.165C601.351 155.165 600.957 155.733 601.709 155.871Z" fill="white"/>
<path fill-rule="evenodd" clip-rule="evenodd" d="M603.056 113.49C602.909 112.949 603.056 112.078 602.387 112.06C602.533 112.628 602.387 113.471 603.056 113.49Z" fill="white"/>
<path fill-rule="evenodd" clip-rule="evenodd" d="M603.056 195.374C602.873 195.576 603.367 196.465 603.716 196.089C603.908 195.888 603.395 195.008 603.056 195.374Z" fill="white"/>
<path fill-rule="evenodd" clip-rule="evenodd" d="M603.716 82.618C603.908 82.4164 603.395 81.5275 603.056 81.894C602.873 82.0956 603.367 82.9845 603.716 82.618Z" fill="white"/>
<path d="M606.391 315.315L606.391 313.867L605.053 313.867L605.053 315.315L606.391 315.315Z" fill="white"/>
<path fill-rule="evenodd" clip-rule="evenodd" d="M609.058 194.66C608.068 193.514 606.08 193.853 606.391 196.089C607.922 196.291 608.911 195.915 609.058 194.66Z" fill="white"/>
<path fill-rule="evenodd" clip-rule="evenodd" d="M606.391 75.4337C606.208 75.6262 606.721 76.515 607.06 76.1485C607.244 75.9652 606.74 75.0672 606.391 75.4337Z" fill="white"/>
<path fill-rule="evenodd" clip-rule="evenodd" d="M607.06 5.03989C606.868 5.25065 607.381 6.13034 607.729 5.76381C607.903 5.57137 607.409 4.67335 607.06 5.03989Z" fill="white"/>
<path fill-rule="evenodd" clip-rule="evenodd" d="M607.729 241.338C608.2 241.692 608.742 241.94 609.318 242.065C609.894 242.19 610.49 242.189 611.065 242.062C611.049 241.288 611.284 240.53 611.734 239.9C610.653 238.736 607.537 239.038 607.729 241.338Z" fill="white"/>
<path fill-rule="evenodd" clip-rule="evenodd" d="M607.729 10.7945L609.736 10.7945C610.708 8.69609 606.749 8.69609 607.729 10.7945Z" fill="white"/>
<path fill-rule="evenodd" clip-rule="evenodd" d="M609.058 406.528C609.251 406.327 608.747 405.438 608.398 405.813C608.215 406.006 608.719 406.895 609.058 406.528Z" fill="white"/>
<path fill-rule="evenodd" clip-rule="evenodd" d="M608.398 2.1718L610.405 2.1718L610.405 6.14207e-05C608.939 -0.119064 608.279 0.595687 608.398 2.16264" fill="white"/>
<path fill-rule="evenodd" clip-rule="evenodd" d="M611.697 4.33445C611.697 3.60138 612.247 3.47309 612.366 2.89579C611.697 2.89579 611.578 2.30933 611.029 2.17188C611.029 2.89579 610.497 3.03324 610.369 3.61054C611.029 3.61054 611.157 4.197 611.697 4.33445Z" fill="white"/>
<path fill-rule="evenodd" clip-rule="evenodd" d="M613.695 364.917L611.028 364.917C610.506 367.666 614.236 367.666 613.695 364.917Z" fill="white"/>
<path fill-rule="evenodd" clip-rule="evenodd" d="M615.079 302.395L615.079 299.517C612.825 299.251 612.229 300.763 611.065 301.68C612.641 301.68 613.035 302.917 615.079 302.395Z" fill="white"/>
<path fill-rule="evenodd" clip-rule="evenodd" d="M613.072 29.4697C613.255 29.2589 612.751 28.3792 612.403 28.7458C612.22 28.9474 612.724 29.8362 613.072 29.4697Z" fill="white"/>
<path fill-rule="evenodd" clip-rule="evenodd" d="M615.079 255.707C614.896 255.908 615.4 256.788 615.748 256.421C615.931 256.229 615.427 255.322 615.079 255.707Z" fill="white"/>
<path fill-rule="evenodd" clip-rule="evenodd" d="M615.748 32.3381C617.581 32.8329 617.04 30.8536 617.746 30.1846C616.014 29.7631 615.345 30.4687 615.748 32.3381Z" fill="white"/>
<path fill-rule="evenodd" clip-rule="evenodd" d="M617.077 20.1596C617.452 20.1596 617.837 19.5823 617.077 19.4448C616.71 19.4448 616.334 20.0221 617.077 20.1596Z" fill="white"/>
<path fill-rule="evenodd" clip-rule="evenodd" d="M619.762 308.855C620.128 308.855 620.513 308.259 619.762 308.131C619.386 308.131 618.992 308.717 619.762 308.855Z" fill="white"/>
<path d="M620.422 218.356L620.422 216.918L619.093 216.918L619.093 218.356L620.422 218.356Z" fill="white"/>
<path fill-rule="evenodd" clip-rule="evenodd" d="M621.09 271.495C621.274 271.303 620.77 270.414 620.421 270.79C620.229 270.982 620.742 271.871 621.09 271.495Z" fill="white"/>
<path fill-rule="evenodd" clip-rule="evenodd" d="M620.421 211.887C621.274 212.867 623.693 213.005 623.766 211.172C622.914 210.192 620.486 210.063 620.421 211.887Z" fill="white"/>
<path fill-rule="evenodd" clip-rule="evenodd" d="M623.097 76.8724C622.905 78.5035 623.253 79.6215 624.435 79.7406C624.28 78.4669 625.104 76.1485 623.097 76.8724Z" fill="white"/>
<path fill-rule="evenodd" clip-rule="evenodd" d="M624.435 399.353C624.619 399.142 624.115 398.263 623.766 398.629C623.583 398.831 624.087 399.72 624.435 399.353Z" fill="white"/>
<path fill-rule="evenodd" clip-rule="evenodd" d="M624.435 338.297C625.132 338.407 626.158 337.738 625.104 337.582C624.399 337.472 623.372 338.141 624.435 338.297Z" fill="white"/>
<path fill-rule="evenodd" clip-rule="evenodd" d="M625.773 193.936C625.618 193.377 625.773 192.525 625.104 192.497C625.251 193.056 625.104 193.917 625.773 193.936Z" fill="white"/>
<path fill-rule="evenodd" clip-rule="evenodd" d="M627.102 205.427C627.285 205.225 626.781 204.336 626.433 204.712C626.25 204.914 626.754 205.793 627.102 205.427Z" fill="white"/>
<path fill-rule="evenodd" clip-rule="evenodd" d="M629.109 145.094C628.926 145.305 629.439 146.185 629.778 145.818C629.961 145.626 629.457 144.728 629.109 145.094Z" fill="white"/>
<path fill-rule="evenodd" clip-rule="evenodd" d="M631.116 345.463C631.299 345.261 630.786 344.372 630.438 344.748C630.264 344.94 630.768 345.839 631.116 345.463Z" fill="white"/>
<path fill-rule="evenodd" clip-rule="evenodd" d="M630.438 30.1846C631.968 30.3862 632.958 30.0196 633.114 28.7459C632.124 27.6188 630.135 27.9395 630.438 30.1846Z" fill="white"/>
<path fill-rule="evenodd" clip-rule="evenodd" d="M632.454 244.93C633.141 245.031 634.168 244.371 633.114 244.206C632.417 244.106 631.382 244.765 632.454 244.93Z" fill="white"/>
<path fill-rule="evenodd" clip-rule="evenodd" d="M635.789 374.209C636.156 374.209 636.55 373.622 635.789 373.485C635.423 373.485 635.038 374.071 635.789 374.209Z" fill="white"/>
<path fill-rule="evenodd" clip-rule="evenodd" d="M636.44 66.0961C637.357 65.6563 636.541 63.3471 637.778 63.2188C638.594 63.1455 639.354 63.008 639.116 61.7893C635.863 60.6439 633.81 65.2806 636.44 66.0961Z" fill="white"/>
<path d="M637.796 68.9736L637.796 67.5349L636.458 67.5349L636.458 68.9736L637.796 68.9736Z" fill="white"/>
<path fill-rule="evenodd" clip-rule="evenodd" d="M637.796 396.467C638.713 397.383 639.812 396.916 640.463 395.752C638.795 395.66 638.383 394.378 637.796 396.467Z" fill="white"/>
<path fill-rule="evenodd" clip-rule="evenodd" d="M639.135 196.098C638.979 195.539 639.135 194.687 638.456 194.669C638.612 195.219 638.456 196.089 639.135 196.098Z" fill="white"/>
<path fill-rule="evenodd" clip-rule="evenodd" d="M639.794 378.516C640.463 378.516 640.591 379.102 641.132 379.239C641.132 378.323 641.994 378.241 641.801 377.086C641.349 377.032 640.893 377.149 640.522 377.413C640.15 377.678 639.891 378.07 639.794 378.516Z" fill="white"/>
<path fill-rule="evenodd" clip-rule="evenodd" d="M641.132 244.93C639.51 242.52 643.368 246.671 641.132 244.93V244.93Z" fill="white"/>
<path fill-rule="evenodd" clip-rule="evenodd" d="M640.463 14.3775C640.93 14.7303 641.467 14.9777 642.038 15.1027C642.609 15.2277 643.201 15.2273 643.771 15.1014C643.662 14.0202 644.01 12.4624 643.103 12.2241C643.313 14.1393 639.354 11.5552 640.427 14.3775" fill="white"/>
<path fill-rule="evenodd" clip-rule="evenodd" d="M641.132 134.318C642.259 135.555 644.138 133.906 645.146 132.889C644.12 131.78 640.564 131.597 641.132 134.318Z" fill="white"/>
<path fill-rule="evenodd" clip-rule="evenodd" d="M642.47 15.8162C642.104 15.8162 641.719 16.4026 642.47 16.5401C642.837 16.5401 643.222 15.9536 642.47 15.8162Z" fill="white"/>
<path fill-rule="evenodd" clip-rule="evenodd" d="M643.139 68.2588C643.313 68.048 642.818 67.1592 642.47 67.5349C642.278 67.7365 642.791 68.6162 643.139 68.2588Z" fill="white"/>
<path fill-rule="evenodd" clip-rule="evenodd" d="M644.477 37.3688C644.66 37.1764 644.147 36.2783 643.808 36.6449C643.625 36.8465 644.129 37.7353 644.477 37.3688Z" fill="white"/>
<path fill-rule="evenodd" clip-rule="evenodd" d="M645.146 314.6C645.045 313.748 645.256 312.557 644.477 312.438C644.578 313.281 644.358 314.481 645.146 314.6Z" fill="white"/>
<path fill-rule="evenodd" clip-rule="evenodd" d="M645.806 28.7458C645.668 28.196 645.806 27.3346 645.146 27.3071C645.293 27.8661 645.146 28.7275 645.806 28.7458Z" fill="white"/>
<path fill-rule="evenodd" clip-rule="evenodd" d="M647.144 300.956C647.336 300.754 646.823 299.865 646.484 300.232C646.292 300.434 646.796 301.332 647.144 300.956Z" fill="white"/>
<path fill-rule="evenodd" clip-rule="evenodd" d="M647.144 4.33442C648.674 4.53602 649.655 4.15115 649.82 2.89576C648.308 2.685 647.309 3.06987 647.144 4.33442Z" fill="white"/>
<path d="M653.824 249.97L653.824 248.522L652.486 248.522L652.486 249.97L653.824 249.97Z" fill="white"/>
<path fill-rule="evenodd" clip-rule="evenodd" d="M653.155 25.1628C652.486 25.1628 652.321 26.4182 653.155 26.6015C653.971 26.4366 653.568 25.7951 653.155 25.1628Z" fill="white"/>
<path fill-rule="evenodd" clip-rule="evenodd" d="M653.852 10.7947C654.228 10.7947 654.622 10.2083 653.852 10.0708C653.485 10.0708 653.1 10.6573 653.852 10.7947Z" fill="white"/>
<path fill-rule="evenodd" clip-rule="evenodd" d="M654.493 156.585C654.869 156.585 655.263 156.008 654.493 155.871C654.127 155.871 653.733 156.457 654.493 156.585Z" fill="white"/>
<path fill-rule="evenodd" clip-rule="evenodd" d="M656.5 3.6105C655.766 3.62783 655.051 3.37328 654.493 2.89575C654.493 3.8121 653.641 3.88541 653.824 5.04C655.346 5.25076 656.344 4.87506 656.5 3.6105Z" fill="white"/>
<path fill-rule="evenodd" clip-rule="evenodd" d="M655.831 191.067C656.683 191.067 656.748 191.984 657.838 191.791L657.838 190.344C656.922 189.537 656.207 189.574 655.831 191.067Z" fill="white"/>
<path fill-rule="evenodd" clip-rule="evenodd" d="M656.5 8.64126C656.876 8.64126 657.252 8.0548 656.5 7.92651C656.134 7.92651 655.74 8.49465 656.5 8.64126Z" fill="white"/>
<path fill-rule="evenodd" clip-rule="evenodd" d="M661.183 20.8469L658.516 20.8469C657.985 23.596 661.705 23.596 661.183 20.8469Z" fill="white"/>
<path fill-rule="evenodd" clip-rule="evenodd" d="M659.836 32.3379C660.12 29.2223 663.703 33.0984 659.836 32.3379V32.3379Z" fill="white"/>
<path fill-rule="evenodd" clip-rule="evenodd" d="M663.85 114.928C664.024 114.736 663.52 113.856 663.181 114.223C662.988 114.406 663.501 115.304 663.85 114.928Z" fill="white"/>
<path fill-rule="evenodd" clip-rule="evenodd" d="M669.192 1.4479C669.568 1.4479 669.953 0.87977 669.192 0.733154C668.826 0.733154 668.441 1.32878 669.192 1.4479Z" fill="white"/>
<path fill-rule="evenodd" clip-rule="evenodd" d="M670.53 15.8162C672.235 17.5664 674.196 15.523 675.204 14.3775C674.434 14.2584 674.471 13.2504 674.535 12.2241C673.6 12.3936 672.731 12.8192 672.024 13.4534C671.317 14.0876 670.8 14.9055 670.53 15.8162Z" fill="white"/>
<path fill-rule="evenodd" clip-rule="evenodd" d="M673.206 303.1C673.023 303.302 673.527 304.2 673.875 303.824C674.049 303.632 673.545 302.725 673.206 303.1Z" fill="white"/>
<path fill-rule="evenodd" clip-rule="evenodd" d="M675.845 169.524C674.233 167.114 678.091 171.256 675.845 169.524V169.524Z" fill="white"/>
<path fill-rule="evenodd" clip-rule="evenodd" d="M679.218 117.082C679.584 117.082 679.969 116.505 679.218 116.376C678.842 116.376 678.457 116.954 679.218 117.082Z" fill="white"/>
<path fill-rule="evenodd" clip-rule="evenodd" d="M680.547 75.4338C680.629 75.5071 681.93 76.121 681.894 76.1485C682.81 75.3696 679.465 72.8772 679.887 75.4338C679.887 75.4338 680.501 75.4338 680.547 75.4338Z" fill="white"/>
<path d="M682.553 230.562L682.553 229.124L681.216 229.124L681.216 230.562L682.553 230.562Z" fill="white"/>
<path fill-rule="evenodd" clip-rule="evenodd" d="M682.553 132.165C682.929 132.165 683.314 131.587 682.553 131.45C682.187 131.45 681.793 132.036 682.553 132.165Z" fill="white"/>
<path fill-rule="evenodd" clip-rule="evenodd" d="M683.177 296.64C683.36 296.438 682.847 295.549 682.508 295.925C682.324 296.127 682.828 297.016 683.177 296.64Z" fill="white"/>
<path fill-rule="evenodd" clip-rule="evenodd" d="M683.891 298.079C684.689 297.969 685.788 298.207 685.889 297.364C685.486 297.318 685.101 297.254 685.22 296.64C684.414 296.722 683.644 296.86 683.891 298.079Z" fill="white"/>
<path fill-rule="evenodd" clip-rule="evenodd" d="M684.561 277.965C682.948 275.564 686.806 279.706 684.561 277.965V277.965Z" fill="white"/>
<path fill-rule="evenodd" clip-rule="evenodd" d="M685.22 331.113L685.22 332.551C685.898 332.551 686.027 333.138 686.558 333.266C686.503 332.139 686.659 330.792 685.22 331.113Z" fill="white"/>
<path fill-rule="evenodd" clip-rule="evenodd" d="M689.234 387.853C689.3 387.396 689.203 386.931 688.96 386.539C688.717 386.147 688.344 385.853 687.905 385.709C687.96 386.827 687.814 388.192 689.234 387.853Z" fill="white"/>
<path fill-rule="evenodd" clip-rule="evenodd" d="M688.574 321.06C688.758 320.868 688.254 319.97 687.905 320.337C687.713 320.547 688.217 321.427 688.574 321.06Z" fill="white"/>
<path fill-rule="evenodd" clip-rule="evenodd" d="M688.574 119.253C688.758 119.052 688.254 118.154 687.905 118.52C687.713 118.722 688.217 119.62 688.574 119.253Z" fill="white"/>
<path d="M691.91 262.158L691.91 260.728L690.572 260.728L690.572 262.158L691.91 262.158Z" fill="white"/>
<path fill-rule="evenodd" clip-rule="evenodd" d="M692.579 289.456L696.584 289.456C696.804 286.826 694.146 287.284 692.579 286.588L692.579 289.456Z" fill="white"/>
<path fill-rule="evenodd" clip-rule="evenodd" d="M693.257 145.094C691.653 142.694 695.502 146.835 693.257 145.094V145.094Z" fill="white"/>
<path fill-rule="evenodd" clip-rule="evenodd" d="M693.257 49.5743C693.083 49.7759 693.587 50.6648 693.935 50.2982C694.109 50.1058 693.614 49.1986 693.257 49.5743Z" fill="white"/>
<path fill-rule="evenodd" clip-rule="evenodd" d="M695.255 140.797C695.429 140.595 694.925 139.706 694.577 140.073C694.393 140.274 694.897 141.163 695.255 140.797Z" fill="white"/>
<path fill-rule="evenodd" clip-rule="evenodd" d="M695.255 354.81C695.062 355.011 695.576 355.909 695.915 355.534C696.098 355.341 695.594 354.443 695.255 354.81Z" fill="white"/>
<path fill-rule="evenodd" clip-rule="evenodd" d="M697.253 76.1485C696.465 76.2584 695.347 76.0202 695.255 76.8724C696.923 76.9732 696.208 79.7222 697.922 79.7222C697.161 77.468 698.114 77.8162 697.253 76.1301" fill="white"/>
<path fill-rule="evenodd" clip-rule="evenodd" d="M697.253 65.3632C697.445 65.1799 696.932 64.291 696.584 64.6576C696.4 64.8592 696.904 65.7572 697.253 65.3632Z" fill="white"/>
<path fill-rule="evenodd" clip-rule="evenodd" d="M697.912 287.302C699.461 287.788 699.36 284.498 697.912 285.149C697.381 285.387 697.115 287.055 697.912 287.302Z" fill="white"/>
<path fill-rule="evenodd" clip-rule="evenodd" d="M697.253 278.689C698.517 278.368 701.285 279.66 700.598 277.25C698.939 277.14 697.353 277.122 697.253 278.689Z" fill="white"/>
<path fill-rule="evenodd" clip-rule="evenodd" d="M703.264 190.344C703.457 188.713 703.108 187.65 701.926 187.466C702.082 188.832 701.175 189.061 701.257 190.344L703.264 190.344Z" fill="white"/>
<path fill-rule="evenodd" clip-rule="evenodd" d="M701.926 141.512C702.302 141.512 702.687 140.934 701.926 140.797C701.56 140.797 701.175 141.365 701.926 141.512Z" fill="white"/>
<path fill-rule="evenodd" clip-rule="evenodd" d="M704.602 78.3019L704.602 74.7099C704.131 74.7779 703.651 74.7497 703.191 74.6268C702.731 74.504 702.301 74.2891 701.926 73.9951C701.248 77.1199 703.411 77.2023 704.602 78.3019Z" fill="white"/>
<path fill-rule="evenodd" clip-rule="evenodd" d="M705.271 203.997L705.271 202.513C704.41 202.513 704.355 201.596 703.264 201.807L703.264 203.961L705.271 203.997Z" fill="white"/>
<path fill-rule="evenodd" clip-rule="evenodd" d="M704.602 331.828C705.454 331.874 705.519 332.744 706.6 332.552L706.6 331.113C705.683 330.316 704.987 330.352 704.602 331.828Z" fill="white"/>
<path fill-rule="evenodd" clip-rule="evenodd" d="M705.94 343.328C706.123 343.135 705.619 342.237 705.271 342.613C705.088 342.806 705.592 343.704 705.94 343.328Z" fill="white"/>
<path fill-rule="evenodd" clip-rule="evenodd" d="M706.6 232.752C707.278 232.752 707.443 231.488 706.6 231.304C706.682 232.12 705.638 232.432 706.6 232.752Z" fill="white"/>
<path fill-rule="evenodd" clip-rule="evenodd" d="M705.94 204.712C705.757 204.914 706.261 205.793 706.6 205.427C706.792 205.225 706.279 204.336 705.94 204.712Z" fill="white"/>
<path d="M709.276 173.831L709.276 172.392L707.938 172.392L707.938 173.831L709.276 173.831Z" fill="white"/>
<path fill-rule="evenodd" clip-rule="evenodd" d="M709.276 191.792C708.909 191.792 708.524 192.36 709.276 192.497C709.642 192.497 710.036 191.92 709.276 191.792Z" fill="white"/>
<path fill-rule="evenodd" clip-rule="evenodd" d="M711.283 94.8236C711.658 94.8236 712.043 94.2372 711.283 94.1089C710.907 94.1089 710.522 94.6954 711.283 94.8236Z" fill="white"/>
<path d="M712.621 167.362L712.621 165.923L711.283 165.923L711.283 167.362L712.621 167.362Z" fill="white"/>
<path fill-rule="evenodd" clip-rule="evenodd" d="M711.283 15.8162C711.099 16.0269 711.603 16.9066 711.942 16.5401C712.135 16.3385 711.622 15.4588 711.283 15.8162Z" fill="white"/>
<path fill-rule="evenodd" clip-rule="evenodd" d="M713.29 364.147C713.473 363.946 712.96 363.066 712.621 363.432C712.437 363.634 712.941 364.532 713.29 364.147Z" fill="white"/>
<path fill-rule="evenodd" clip-rule="evenodd" d="M714.618 248.523L714.618 247.084C713.959 247.084 713.83 246.507 713.29 246.369C713.244 247.285 712.428 247.359 712.621 248.523L714.618 248.523Z" fill="white"/>
<path fill-rule="evenodd" clip-rule="evenodd" d="M713.29 15.8162C713.959 15.8162 714.087 16.4026 714.618 16.5401C714.554 15.413 714.71 14.0476 713.29 14.3775L713.29 15.8162Z" fill="white"/>
<path fill-rule="evenodd" clip-rule="evenodd" d="M713.958 191.792L713.958 194.651C715.562 194.944 715.406 193.34 717.294 193.936C717.01 190.729 715.883 192.873 713.958 191.792Z" fill="white"/>
<path fill-rule="evenodd" clip-rule="evenodd" d="M716.625 167.362L718 167.362L718 165.199C716.8 165.117 716.433 165.923 716.662 167.362" fill="white"/>
<path fill-rule="evenodd" clip-rule="evenodd" d="M717.294 44.5528C717.487 44.3512 716.974 43.4623 716.625 43.8289C716.442 44.0213 716.946 44.9101 717.294 44.5528Z" fill="white"/>
<path fill-rule="evenodd" clip-rule="evenodd" d="M718 198.957C718.183 198.765 717.67 197.876 717.331 198.242C717.148 198.444 717.652 199.333 718 198.957Z" fill="white"/>
<path fill-rule="evenodd" clip-rule="evenodd" d="M335.769 60.3966L335.769 58.2432C334.578 58.1332 334.211 58.9579 334.431 60.3966L335.769 60.3966Z" fill="white"/>
<path fill-rule="evenodd" clip-rule="evenodd" d="M337.776 5.09487C337.593 5.28731 338.097 6.17616 338.445 5.81879C338.628 5.59887 338.124 4.71917 337.776 5.09487Z" fill="white"/>
<path d="M339.783 20.1779L339.783 18.7393L338.445 18.7393L338.445 20.1779L339.783 20.1779Z" fill="white"/>
<path fill-rule="evenodd" clip-rule="evenodd" d="M339.783 404.42C340.15 404.42 340.535 403.834 339.783 403.697C339.407 403.697 339.022 404.283 339.783 404.42Z" fill="white"/>
<path fill-rule="evenodd" clip-rule="evenodd" d="M339.783 160.938C340.15 160.938 340.535 160.361 339.783 160.223C339.407 160.223 339.022 160.801 339.783 160.938Z" fill="white"/>
<path d="M346.473 410.881L346.473 409.442L345.126 409.442L345.126 410.881L346.473 410.881Z" fill="white"/>
<path fill-rule="evenodd" clip-rule="evenodd" d="M355.105 137.241C357.744 139.367 359.641 135.739 360.466 133.649C357.304 133.374 355.884 134.932 355.105 137.241Z" fill="white"/>
<path fill-rule="evenodd" clip-rule="evenodd" d="M361.163 185.368C361.346 185.166 360.842 184.268 360.494 184.635C360.31 184.846 360.814 185.734 361.163 185.368Z" fill="white"/>
<path fill-rule="evenodd" clip-rule="evenodd" d="M361.832 41.7212C362.51 41.7212 362.675 40.4567 361.832 40.2917C361.905 41.089 360.851 41.4005 361.832 41.7212Z" fill="white"/>
<path d="M362.5 33.0984L362.5 31.6689L361.163 31.6689L361.163 33.0984L362.5 33.0984Z" fill="white"/>
<path fill-rule="evenodd" clip-rule="evenodd" d="M367.174 293.094C367.541 293.094 367.935 292.516 367.174 292.379C366.798 292.379 366.414 292.947 367.174 293.094Z" fill="white"/>
<path fill-rule="evenodd" clip-rule="evenodd" d="M367.843 159.499C368.026 159.298 367.522 158.418 367.174 158.785C366.991 158.986 367.504 159.875 367.843 159.499Z" fill="white"/>
<path fill-rule="evenodd" clip-rule="evenodd" d="M370.519 228.454C370.363 227.895 370.519 227.034 369.85 227.025C369.997 227.575 369.85 228.436 370.519 228.454Z" fill="white"/>
<path fill-rule="evenodd" clip-rule="evenodd" d="M371.188 246.415L372.517 246.415L372.517 244.261C371.307 244.161 370.941 244.967 371.179 246.415" fill="white"/>
<path fill-rule="evenodd" clip-rule="evenodd" d="M371.188 134.373C371.335 134.932 371.188 135.784 371.848 135.803C371.701 135.244 371.848 134.392 371.188 134.373Z" fill="white"/>
<path fill-rule="evenodd" clip-rule="evenodd" d="M375.193 175.306C375.376 175.114 374.872 174.216 374.515 174.592C374.34 174.784 374.845 175.682 375.193 175.306Z" fill="white"/>
<path fill-rule="evenodd" clip-rule="evenodd" d="M375.853 409.442C376.045 409.241 375.541 408.352 375.193 408.718C375 408.929 375.513 409.809 375.853 409.442Z" fill="white"/>
<path fill-rule="evenodd" clip-rule="evenodd" d="M377.19 173.19L379.848 173.19C380.004 171.843 379.096 171.614 379.179 170.321C377.419 170.102 376.989 171.32 377.172 173.19" fill="white"/>
<path fill-rule="evenodd" clip-rule="evenodd" d="M379.848 150.171C380.224 150.171 380.609 149.594 379.848 149.456C379.481 149.456 379.087 150.034 379.848 150.171Z" fill="white"/>
<path fill-rule="evenodd" clip-rule="evenodd" d="M381.204 107.79C381.058 107.24 381.204 106.37 380.545 106.351C380.691 106.919 380.545 107.772 381.204 107.79Z" fill="white"/>
<path fill-rule="evenodd" clip-rule="evenodd" d="M381.204 189.684C381.021 189.876 381.525 190.765 381.873 190.399C382.056 190.197 381.552 189.317 381.204 189.684Z" fill="white"/>
<path fill-rule="evenodd" clip-rule="evenodd" d="M381.873 76.9091C382.056 76.7167 381.552 75.8278 381.204 76.1944C381.021 76.396 381.525 77.2848 381.873 76.9091Z" fill="white"/>
<path fill-rule="evenodd" clip-rule="evenodd" d="M387.179 188.951C386.18 187.815 384.192 188.144 384.512 190.39C386.034 190.582 387.023 190.215 387.179 188.951Z" fill="white"/>
<path fill-rule="evenodd" clip-rule="evenodd" d="M384.549 69.734C384.366 69.9172 384.87 70.8153 385.218 70.4487C385.401 70.2563 384.888 69.3583 384.549 69.734Z" fill="white"/>
<path fill-rule="evenodd" clip-rule="evenodd" d="M385.878 235.639C386.35 235.99 386.893 236.236 387.468 236.359C388.044 236.482 388.639 236.48 389.214 236.353C389.208 235.582 389.445 234.829 389.892 234.2C388.81 233.027 385.695 233.284 385.878 235.639Z" fill="white"/>
<path fill-rule="evenodd" clip-rule="evenodd" d="M385.878 5.09507L387.885 5.09507C388.865 2.99663 384.897 2.99663 385.878 5.09507Z" fill="white"/>
<path fill-rule="evenodd" clip-rule="evenodd" d="M387.179 400.828C387.363 400.618 386.859 399.738 386.51 400.114C386.336 400.297 386.84 401.195 387.179 400.828Z" fill="white"/>
<path fill-rule="evenodd" clip-rule="evenodd" d="M391.22 23.7702C391.413 23.5595 390.909 22.6798 390.552 23.0463C390.377 23.2387 390.881 24.1276 391.22 23.7702Z" fill="white"/>
<path fill-rule="evenodd" clip-rule="evenodd" d="M393.227 250.007C393.044 250.199 393.548 251.088 393.896 250.722C394.089 250.52 393.576 249.622 393.227 250.007Z" fill="white"/>
<path fill-rule="evenodd" clip-rule="evenodd" d="M393.896 26.629C395.729 27.1238 395.189 25.1537 395.903 24.4847C394.162 24.0541 393.502 24.7688 393.896 26.629Z" fill="white"/>
<path fill-rule="evenodd" clip-rule="evenodd" d="M395.234 14.4232C395.601 14.4232 395.995 13.8459 395.234 13.7085C394.859 13.7085 394.483 14.2858 395.234 14.4232Z" fill="white"/>
<path d="M398.57 212.657L398.57 211.218L397.241 211.218L397.241 212.657L398.57 212.657Z" fill="white"/>
<path fill-rule="evenodd" clip-rule="evenodd" d="M398.57 206.178C399.422 207.159 401.851 207.287 401.915 205.463C401.063 204.483 398.643 204.346 398.57 206.178Z" fill="white"/>
<path fill-rule="evenodd" clip-rule="evenodd" d="M403.922 188.227C403.766 187.677 403.922 186.816 403.253 186.797C403.409 187.356 403.253 188.218 403.922 188.227Z" fill="white"/>
<path fill-rule="evenodd" clip-rule="evenodd" d="M405.251 199.764C405.443 199.562 404.93 198.673 404.591 199.049C404.407 199.241 404.911 200.13 405.251 199.764Z" fill="white"/>
<path fill-rule="evenodd" clip-rule="evenodd" d="M407.267 139.395C407.074 139.596 407.587 140.485 407.936 140.119C408.119 139.917 407.606 139.028 407.267 139.395Z" fill="white"/>
<path fill-rule="evenodd" clip-rule="evenodd" d="M410.602 239.231C411.299 239.331 412.325 238.672 411.271 238.507C410.566 238.397 409.539 239.066 410.602 239.231Z" fill="white"/>
<path fill-rule="evenodd" clip-rule="evenodd" d="M413.938 368.5C414.305 368.5 414.699 367.923 413.938 367.785C413.572 367.785 413.187 368.372 413.938 368.5Z" fill="white"/>
<path fill-rule="evenodd" clip-rule="evenodd" d="M417.283 190.389C417.136 189.83 417.283 188.978 416.614 188.951C416.761 189.51 416.614 190.371 417.283 190.389Z" fill="white"/>
<path fill-rule="evenodd" clip-rule="evenodd" d="M417.952 372.816C418.612 372.816 418.749 373.393 419.29 373.54C419.29 372.623 420.142 372.541 419.959 371.377C419.505 371.324 419.048 371.442 418.677 371.708C418.305 371.974 418.047 372.369 417.952 372.816Z" fill="white"/>
<path fill-rule="evenodd" clip-rule="evenodd" d="M419.253 239.231C417.631 236.821 421.489 240.963 419.253 239.231V239.231Z" fill="white"/>
<path fill-rule="evenodd" clip-rule="evenodd" d="M418.612 8.67783C419.085 9.0309 419.629 9.27824 420.206 9.40313C420.783 9.52802 421.38 9.52755 421.957 9.40174C421.847 8.32045 422.195 6.7535 421.288 6.52441C421.508 8.43042 417.54 5.85548 418.612 8.67783Z" fill="white"/>
<path fill-rule="evenodd" clip-rule="evenodd" d="M420.619 10.0798C420.252 10.0798 419.867 10.6663 420.619 10.8037C420.994 10.8037 421.379 10.2173 420.619 10.0798Z" fill="white"/>
<path fill-rule="evenodd" clip-rule="evenodd" d="M431.313 19.4541C430.635 19.4541 430.479 20.7187 431.313 20.8928C432.119 20.737 431.716 20.0955 431.313 19.4541Z" fill="white"/>
<path fill-rule="evenodd" clip-rule="evenodd" d="M431.982 5.09501C432.349 5.09501 432.743 4.49938 431.982 4.37109C431.606 4.37109 431.231 4.94839 431.982 5.09501Z" fill="white"/>
<path fill-rule="evenodd" clip-rule="evenodd" d="M433.98 185.368C434.832 185.368 434.896 186.284 435.987 186.083L435.987 184.635C435.025 183.838 434.365 183.874 433.98 185.368Z" fill="white"/>
<path fill-rule="evenodd" clip-rule="evenodd" d="M434.649 2.93228C435.024 2.93228 435.409 2.35498 434.649 2.21753C434.282 2.21753 433.897 2.79483 434.649 2.93228Z" fill="white"/>
<path fill-rule="evenodd" clip-rule="evenodd" d="M439.322 15.1382L436.665 15.1382C436.133 17.8872 439.854 17.8872 439.322 15.1382Z" fill="white"/>
<path fill-rule="evenodd" clip-rule="evenodd" d="M437.994 26.629C438.269 23.5226 441.861 27.3896 437.994 26.629V26.629Z" fill="white"/>
<path fill-rule="evenodd" clip-rule="evenodd" d="M448.688 10.0799C450.393 11.8301 452.354 9.78664 453.353 8.64121C452.583 8.52208 452.629 7.5141 452.693 6.48779C451.757 6.65433 450.886 7.07882 450.179 7.71346C449.471 8.3481 448.955 9.16767 448.688 10.0799Z" fill="white"/>
<path fill-rule="evenodd" clip-rule="evenodd" d="M451.327 297.4C451.144 297.602 451.648 298.5 451.996 298.124C452.179 297.923 451.675 297.025 451.327 297.4Z" fill="white"/>
<path fill-rule="evenodd" clip-rule="evenodd" d="M458.659 69.7341C458.732 69.7982 460.042 70.4122 460.006 70.4488C460.922 69.6699 457.568 67.1775 457.99 69.7341C457.99 69.7341 458.613 69.7341 458.659 69.7341Z" fill="white"/>
<path fill-rule="evenodd" clip-rule="evenodd" d="M461.408 290.931C461.591 290.739 461.078 289.85 460.739 290.225C460.555 290.418 461.059 291.316 461.408 290.931Z" fill="white"/>
<path fill-rule="evenodd" clip-rule="evenodd" d="M462.049 292.379C462.837 292.269 463.937 292.498 464.047 291.655C463.644 291.655 463.259 291.545 463.378 290.931C462.562 291.023 461.802 291.16 462.049 292.379Z" fill="white"/>
<path fill-rule="evenodd" clip-rule="evenodd" d="M462.709 272.265C461.096 269.855 464.954 274.006 462.709 272.265V272.265Z" fill="white"/>
<path fill-rule="evenodd" clip-rule="evenodd" d="M463.378 325.404L463.378 326.843C464.047 326.843 464.175 327.429 464.716 327.567C464.652 326.44 464.807 325.083 463.378 325.404Z" fill="white"/>
<path fill-rule="evenodd" clip-rule="evenodd" d="M467.392 382.117C467.459 381.659 467.362 381.192 467.117 380.799C466.872 380.406 466.495 380.113 466.054 379.972C466.109 381.09 465.962 382.447 467.392 382.117Z" fill="white"/>
<path fill-rule="evenodd" clip-rule="evenodd" d="M466.723 315.361C466.906 315.159 466.402 314.261 466.054 314.637C465.861 314.839 466.365 315.727 466.723 315.361Z" fill="white"/>
<path d="M470.059 256.467L470.059 255.029L468.73 255.029L468.73 256.467L470.059 256.467Z" fill="white"/>
<path fill-rule="evenodd" clip-rule="evenodd" d="M470.728 283.756L474.732 283.756C474.961 281.117 472.304 281.584 470.728 280.888L470.728 283.756Z" fill="white"/>
<path fill-rule="evenodd" clip-rule="evenodd" d="M471.397 43.8748C471.213 44.0673 471.717 44.9561 472.066 44.5896C472.249 44.3972 471.745 43.4991 471.397 43.8748Z" fill="white"/>
<path fill-rule="evenodd" clip-rule="evenodd" d="M473.403 349.128C473.22 349.321 473.724 350.209 474.072 349.843C474.256 349.641 473.742 348.752 473.403 349.128Z" fill="white"/>
<path fill-rule="evenodd" clip-rule="evenodd" d="M475.401 70.4487C474.613 70.5587 473.504 70.3204 473.403 71.1635C475.117 71.2368 474.32 73.9675 476.07 74.0408C475.319 71.7866 476.263 72.1348 475.401 70.4487Z" fill="white"/>
<path fill-rule="evenodd" clip-rule="evenodd" d="M475.401 59.6635C475.594 59.4802 475.08 58.5822 474.732 58.9579C474.558 59.1595 475.062 60.0575 475.401 59.6635Z" fill="white"/>
<path fill-rule="evenodd" clip-rule="evenodd" d="M476.07 281.603C477.619 282.079 477.518 278.799 476.07 279.44C475.529 279.688 475.264 281.355 476.07 281.603Z" fill="white"/>
<path fill-rule="evenodd" clip-rule="evenodd" d="M475.401 272.98C476.666 272.668 479.433 273.951 478.746 271.55C477.087 271.44 475.502 271.413 475.401 272.98Z" fill="white"/>
<path fill-rule="evenodd" clip-rule="evenodd" d="M481.413 184.635C481.605 183.004 481.257 181.941 480.084 181.767C480.231 183.132 479.333 183.352 479.406 184.635L481.413 184.635Z" fill="white"/>
<path fill-rule="evenodd" clip-rule="evenodd" d="M482.751 72.6022L482.751 69.0102C482.281 69.0775 481.802 69.0488 481.344 68.926C480.886 68.8031 480.457 68.5886 480.084 68.2954C479.406 71.4202 481.559 71.4935 482.751 72.6022Z" fill="white"/>
<path fill-rule="evenodd" clip-rule="evenodd" d="M483.401 198.288L483.401 196.85C482.549 196.85 482.485 195.933 481.394 196.135L481.394 198.288L483.401 198.288Z" fill="white"/>
<path fill-rule="evenodd" clip-rule="evenodd" d="M482.751 326.128C483.612 326.128 483.667 327.044 484.758 326.843L484.758 325.404C483.841 324.616 483.136 324.643 482.751 326.128Z" fill="white"/>
<path fill-rule="evenodd" clip-rule="evenodd" d="M484.088 337.628C484.272 337.436 483.768 336.528 483.42 336.904C483.236 337.097 483.74 337.995 484.088 337.628Z" fill="white"/>
<path fill-rule="evenodd" clip-rule="evenodd" d="M484.757 227.025C485.436 227.025 485.601 225.751 484.757 225.577C484.831 226.393 483.786 226.695 484.757 227.025Z" fill="white"/>
<path fill-rule="evenodd" clip-rule="evenodd" d="M484.089 199.012C483.915 199.214 484.409 200.094 484.758 199.727C484.95 199.525 484.428 198.637 484.089 199.012Z" fill="white"/>
<path d="M487.433 168.122L487.433 166.693L486.095 166.693L486.095 168.122L487.433 168.122Z" fill="white"/>
<path fill-rule="evenodd" clip-rule="evenodd" d="M487.434 186.083C487.067 186.083 486.673 186.66 487.434 186.797C487.8 186.797 488.194 186.22 487.434 186.083Z" fill="white"/>
<path d="M490.769 161.662L490.769 160.223L489.431 160.223L489.431 161.662L490.769 161.662Z" fill="white"/>
<path fill-rule="evenodd" clip-rule="evenodd" d="M489.431 10.0798C489.257 10.2814 489.752 11.1703 490.1 10.8038C490.293 10.6022 489.77 9.7133 489.431 10.0798Z" fill="white"/>
<path fill-rule="evenodd" clip-rule="evenodd" d="M491.438 358.438C491.621 358.246 491.117 357.366 490.769 357.723C490.586 357.934 491.09 358.823 491.438 358.438Z" fill="white"/>
<path fill-rule="evenodd" clip-rule="evenodd" d="M492.776 242.832L492.776 241.402C492.107 241.402 491.979 240.825 491.438 240.688C491.438 241.604 490.586 241.677 490.769 242.832L492.776 242.832Z" fill="white"/>
<path fill-rule="evenodd" clip-rule="evenodd" d="M491.438 10.0798C492.107 10.0798 492.235 10.6663 492.776 10.8038C492.712 9.66749 492.868 8.31129 491.438 8.64118L491.438 10.0798Z" fill="white"/>
<path fill-rule="evenodd" clip-rule="evenodd" d="M492.107 186.083L492.107 188.951C493.711 189.244 493.555 187.64 495.443 188.227C495.159 185.029 494.041 187.164 492.107 186.083Z" fill="white"/>
<path fill-rule="evenodd" clip-rule="evenodd" d="M494.783 161.662L496.121 161.662L496.121 159.499C494.911 159.408 494.554 160.223 494.783 161.662Z" fill="white"/>
<path fill-rule="evenodd" clip-rule="evenodd" d="M495.443 38.8441C495.635 38.6425 495.122 37.7628 494.783 38.1294C494.6 38.3218 495.094 39.2106 495.443 38.8441Z" fill="white"/>
<path fill-rule="evenodd" clip-rule="evenodd" d="M496.112 193.258C496.295 193.056 495.791 192.176 495.443 192.534C495.259 192.735 495.773 193.633 496.112 193.258Z" fill="white"/>
<path d="M497.459 199.727L497.459 198.288L496.121 198.288L496.121 199.727L497.459 199.727Z" fill="white"/>
<path fill-rule="evenodd" clip-rule="evenodd" d="M497.459 168.122C500.575 165.62 500.144 171.787 497.459 168.122V168.122Z" fill="white"/>
<path fill-rule="evenodd" clip-rule="evenodd" d="M498.788 202.595C498.641 202.036 498.788 201.175 498.128 201.156C498.265 201.715 498.128 202.577 498.788 202.595Z" fill="white"/>
<path d="M499.457 146.579L499.457 145.14L498.128 145.14L498.128 146.579L499.457 146.579Z" fill="white"/>
<path fill-rule="evenodd" clip-rule="evenodd" d="M498.788 39.5679C499.154 39.5679 499.548 38.9814 498.788 38.844C498.421 38.844 498.036 39.4305 498.788 39.5679Z" fill="white"/>
<path fill-rule="evenodd" clip-rule="evenodd" d="M500.126 399.381C500.492 399.381 500.877 398.813 500.126 398.675C499.759 398.675 499.365 399.262 500.126 399.381Z" fill="white"/>
<path d="M504.13 23.0461L504.13 21.6074L501.464 21.6074L501.464 23.0461L504.13 23.0461Z" fill="white"/>
<path fill-rule="evenodd" clip-rule="evenodd" d="M503.461 402.276C503.36 401.424 503.58 400.224 502.801 400.123C502.902 400.957 502.682 402.157 503.461 402.276Z" fill="white"/>
<path fill-rule="evenodd" clip-rule="evenodd" d="M505.468 402.982C505.322 402.423 505.468 401.562 504.808 401.543C504.955 402.102 504.808 402.964 505.468 402.982Z" fill="white"/>
<path fill-rule="evenodd" clip-rule="evenodd" d="M505.468 250.007C505.652 249.805 505.148 248.907 504.809 249.283C504.616 249.485 505.129 250.373 505.468 250.007Z" fill="white"/>
<path fill-rule="evenodd" clip-rule="evenodd" d="M506.806 356.294C506.87 355.835 506.772 355.369 506.527 354.975C506.283 354.582 505.908 354.286 505.468 354.141C505.532 355.268 505.376 356.633 506.806 356.294Z" fill="white"/>
<path fill-rule="evenodd" clip-rule="evenodd" d="M506.806 398.675C506.99 398.464 506.486 397.575 506.137 397.951C505.954 398.153 506.467 399.042 506.806 398.675Z" fill="white"/>
<path fill-rule="evenodd" clip-rule="evenodd" d="M507.475 173.868L508.813 173.868C511.507 170.963 504.955 169.928 507.475 173.868Z" fill="white"/>
<path fill-rule="evenodd" clip-rule="evenodd" d="M508.813 311.76C508.996 311.567 508.492 310.669 508.144 311.045C507.961 311.256 508.465 312.135 508.813 311.76Z" fill="white"/>
<path fill-rule="evenodd" clip-rule="evenodd" d="M508.813 387.89C514.788 388.009 509.785 393.388 508.813 387.89V387.89Z" fill="white"/>
<path fill-rule="evenodd" clip-rule="evenodd" d="M510.82 56.0805C511.187 56.0805 511.571 55.5032 510.82 55.3657C510.435 55.3657 510.05 55.9522 510.82 56.0805Z" fill="white"/>
<path fill-rule="evenodd" clip-rule="evenodd" d="M511.48 97.7377C511.672 97.5361 511.159 96.6472 510.82 97.0321C510.637 97.2153 511.132 98.1134 511.48 97.7377Z" fill="white"/>
<path fill-rule="evenodd" clip-rule="evenodd" d="M512.818 403.697C513.487 403.697 513.615 404.283 514.156 404.421C514.092 403.294 514.247 401.928 512.818 402.258L512.818 403.697Z" fill="white"/>
<path fill-rule="evenodd" clip-rule="evenodd" d="M514.156 349.128C514.522 349.128 514.916 348.542 514.156 348.404C513.78 348.404 513.395 348.982 514.156 349.128Z" fill="white"/>
<path d="M515.485 297.4L515.485 295.971L514.156 295.971L514.156 297.4L515.485 297.4Z" fill="white"/>
<path fill-rule="evenodd" clip-rule="evenodd" d="M516.822 265.796C517.015 265.594 516.502 264.714 516.163 265.081C515.979 265.283 516.483 266.171 516.822 265.796Z" fill="white"/>
<path fill-rule="evenodd" clip-rule="evenodd" d="M516.822 207.626C516.648 207.828 517.152 208.707 517.501 208.341C517.684 208.148 517.171 207.259 516.822 207.626Z" fill="white"/>
<path fill-rule="evenodd" clip-rule="evenodd" d="M517.5 143.711C518.307 143.555 517.904 142.913 517.5 142.272C516.822 142.272 516.648 143.527 517.5 143.711Z" fill="white"/>
<path fill-rule="evenodd" clip-rule="evenodd" d="M518.829 186.083C519.507 186.083 519.672 184.818 518.829 184.635C518.893 185.459 517.858 185.771 518.829 186.083Z" fill="white"/>
<path fill-rule="evenodd" clip-rule="evenodd" d="M520.836 199.764C520.433 197.473 522.092 197.537 520.836 196.171C517.702 195.942 519.049 199.498 520.836 199.764Z" fill="white"/>
<path d="M521.496 323.975L521.496 321.812L519.498 321.812L519.498 323.975L521.496 323.975Z" fill="white"/>
<path fill-rule="evenodd" clip-rule="evenodd" d="M519.498 207.626L520.845 207.626C520.845 206.902 521.377 206.774 521.496 206.187C520.451 206.261 519.187 206.096 519.498 207.626Z" fill="white"/>
<path fill-rule="evenodd" clip-rule="evenodd" d="M524.841 122.873C525.519 122.873 525.675 121.618 524.841 121.434C524.914 122.25 523.879 122.571 524.841 122.873Z" fill="white"/>
<path fill-rule="evenodd" clip-rule="evenodd" d="M524.841 148.732C525.29 145.433 528.891 149.31 524.841 148.732V148.732Z" fill="white"/>
<path fill-rule="evenodd" clip-rule="evenodd" d="M525.51 340.496C527.04 340.698 528.03 340.313 528.186 339.058C527.269 338.838 526.903 338.041 525.51 338.352L525.51 340.496Z" fill="white"/>
<path fill-rule="evenodd" clip-rule="evenodd" d="M526.848 20.1596C525.235 17.7497 529.093 21.8915 526.848 20.1596V20.1596Z" fill="white"/>
<path fill-rule="evenodd" clip-rule="evenodd" d="M528.177 132.211C528.369 132.027 527.865 131.129 527.508 131.487C527.333 131.698 527.837 132.577 528.177 132.211Z" fill="white"/>
<path d="M530.193 44.5895L530.193 43.1509L528.855 43.1509L528.855 44.5895L530.193 44.5895Z" fill="white"/>
<path fill-rule="evenodd" clip-rule="evenodd" d="M530.193 42.4362C530.376 42.2346 529.863 41.3549 529.524 41.7214C529.331 41.923 529.845 42.8119 530.193 42.4362Z" fill="white"/>
<path fill-rule="evenodd" clip-rule="evenodd" d="M138.395 5.03994C138.587 4.84751 138.074 3.94949 137.726 4.33436C137.543 4.52679 138.056 5.42481 138.395 5.03994Z" fill="white"/>
<path fill-rule="evenodd" clip-rule="evenodd" d="M140.402 10.7946C140.218 10.987 140.722 11.8759 141.071 11.5185C141.254 11.3078 140.75 10.4281 140.402 10.7946Z" fill="white"/>
<path d="M142.399 25.8776L142.399 24.439L141.061 24.439L141.061 25.8776L142.399 25.8776Z" fill="white"/>
<path fill-rule="evenodd" clip-rule="evenodd" d="M142.4 410.12C142.784 410.12 143.16 409.534 142.4 409.396C142.033 409.396 141.648 409.983 142.4 410.12Z" fill="white"/>
<path fill-rule="evenodd" clip-rule="evenodd" d="M142.4 166.647C142.784 166.647 143.16 166.061 142.4 165.923C142.033 165.923 141.648 166.5 142.4 166.647Z" fill="white"/>
<path fill-rule="evenodd" clip-rule="evenodd" d="M143.069 234.154C143.49 234.319 144.516 233.073 144.416 232.725C143.875 230.828 140.658 233.183 143.069 234.154Z" fill="white"/>
<path fill-rule="evenodd" clip-rule="evenodd" d="M164.494 47.421C165.172 47.421 165.337 46.1564 164.494 45.9915C164.558 46.7887 163.513 47.1094 164.494 47.421Z" fill="white"/>
<path d="M165.126 38.7982L165.126 37.3687L163.788 37.3687L163.788 38.7982L165.126 38.7982Z" fill="white"/>
<path fill-rule="evenodd" clip-rule="evenodd" d="M167.802 61.0655C168.205 61.0655 168.581 61.1663 168.462 61.7894L169.8 61.7894C170.835 60.0208 167.536 59.6726 167.802 61.0655Z" fill="white"/>
<path fill-rule="evenodd" clip-rule="evenodd" d="M179.825 5.03994C179.999 4.84751 179.495 3.94949 179.147 4.33436C178.964 4.52679 179.468 5.42481 179.825 5.03994Z" fill="white"/>
<path fill-rule="evenodd" clip-rule="evenodd" d="M183.83 195.374C183.647 195.576 184.142 196.465 184.499 196.089C184.682 195.888 184.169 195.008 183.83 195.374Z" fill="white"/>
<path fill-rule="evenodd" clip-rule="evenodd" d="M189.842 194.66C188.843 193.514 186.863 193.853 187.175 196.089C188.696 196.291 189.686 195.915 189.842 194.66Z" fill="white"/>
<path fill-rule="evenodd" clip-rule="evenodd" d="M187.835 5.03989C187.642 5.25065 188.155 6.13034 188.504 5.76381C188.678 5.57137 188.183 4.67335 187.835 5.03989Z" fill="white"/>
<path fill-rule="evenodd" clip-rule="evenodd" d="M188.503 241.338C188.975 241.692 189.517 241.939 190.092 242.064C190.668 242.189 191.264 242.189 191.839 242.062C191.822 241.287 192.06 240.527 192.517 239.9C191.436 238.736 188.32 239.038 188.503 241.338Z" fill="white"/>
<path fill-rule="evenodd" clip-rule="evenodd" d="M188.504 10.7945L190.511 10.7945C191.491 8.69609 187.523 8.69609 188.504 10.7945Z" fill="white"/>
<path fill-rule="evenodd" clip-rule="evenodd" d="M189.173 2.1718L191.179 2.1718L191.179 6.14207e-05C189.713 -0.119064 189.053 0.595687 189.173 2.16264" fill="white"/>
<path fill-rule="evenodd" clip-rule="evenodd" d="M192.517 4.33445C192.517 3.60138 193.058 3.47309 193.177 2.89579C192.508 2.89579 192.389 2.30933 191.839 2.17188C191.839 2.89579 191.299 3.03324 191.179 3.61054C191.848 3.61054 191.968 4.197 192.517 4.33445Z" fill="white"/>
<path fill-rule="evenodd" clip-rule="evenodd" d="M194.479 364.917L191.803 364.917C191.28 367.666 195.01 367.666 194.479 364.917Z" fill="white"/>
<path fill-rule="evenodd" clip-rule="evenodd" d="M193.819 29.4697C194.002 29.2589 193.489 28.3792 193.141 28.7458C192.957 28.9474 193.471 29.8362 193.819 29.4697Z" fill="white"/>
<path fill-rule="evenodd" clip-rule="evenodd" d="M196.522 32.3381C198.355 32.8329 197.814 30.8536 198.52 30.1846C196.788 29.7631 196.119 30.4687 196.522 32.3381Z" fill="white"/>
<path fill-rule="evenodd" clip-rule="evenodd" d="M197.86 20.1598C198.227 20.1598 198.611 19.5825 197.86 19.4451C197.484 19.4451 197.109 20.0224 197.86 20.1598Z" fill="white"/>
<path fill-rule="evenodd" clip-rule="evenodd" d="M203.899 76.8724C203.707 78.5035 204.046 79.6215 205.228 79.7406C205.081 78.4669 205.897 76.1485 203.899 76.8724Z" fill="white"/>
<path fill-rule="evenodd" clip-rule="evenodd" d="M205.21 399.353C205.393 399.142 204.898 398.263 204.531 398.629C204.357 398.831 204.861 399.72 205.21 399.353Z" fill="white"/>
<path fill-rule="evenodd" clip-rule="evenodd" d="M211.23 30.1846C212.752 30.3862 213.741 30.0196 213.906 28.7459C212.907 27.6188 210.919 27.9395 211.23 30.1846Z" fill="white"/>
<path fill-rule="evenodd" clip-rule="evenodd" d="M216.564 374.209C216.93 374.209 217.324 373.622 216.564 373.485C216.188 373.485 215.812 374.071 216.564 374.209Z" fill="white"/>
<path fill-rule="evenodd" clip-rule="evenodd" d="M218.562 396.467C219.478 397.383 220.569 396.916 221.219 395.752C219.551 395.66 219.139 394.378 218.562 396.467Z" fill="white"/>
<path fill-rule="evenodd" clip-rule="evenodd" d="M220.577 378.515C221.237 378.515 221.375 379.102 221.915 379.239C221.915 378.323 222.768 378.241 222.575 377.086C222.124 377.035 221.67 377.152 221.301 377.417C220.932 377.681 220.674 378.072 220.577 378.515Z" fill="white"/>
<path fill-rule="evenodd" clip-rule="evenodd" d="M221.916 244.93C220.294 242.52 224.152 246.671 221.916 244.93V244.93Z" fill="white"/>
<path fill-rule="evenodd" clip-rule="evenodd" d="M221.237 14.3775C221.709 14.7344 222.252 14.9841 222.83 15.1092C223.408 15.2342 224.006 15.2316 224.582 15.1014C224.472 14.0202 224.821 12.4624 223.913 12.2241C224.124 14.1393 220.165 11.5552 221.237 14.3775Z" fill="white"/>
<path fill-rule="evenodd" clip-rule="evenodd" d="M221.915 134.318C223.043 135.555 224.912 133.906 225.92 132.889C224.903 131.78 221.338 131.597 221.915 134.318Z" fill="white"/>
<path fill-rule="evenodd" clip-rule="evenodd" d="M223.254 15.8162C222.878 15.8162 222.493 16.4026 223.254 16.5401C223.62 16.5401 224.005 15.9536 223.254 15.8162Z" fill="white"/>
<path fill-rule="evenodd" clip-rule="evenodd" d="M226.589 28.7458C226.442 28.196 226.589 27.3346 225.92 27.3071C226.067 27.8661 225.92 28.7275 226.589 28.7458Z" fill="white"/>
<path fill-rule="evenodd" clip-rule="evenodd" d="M227.927 4.33442C229.448 4.53602 230.438 4.15115 230.594 2.89576C229.082 2.685 228.083 3.06987 227.927 4.33442Z" fill="white"/>
<path d="M234.599 249.97L234.599 248.522L233.261 248.522L233.261 249.97L234.599 249.97Z" fill="white"/>
<path fill-rule="evenodd" clip-rule="evenodd" d="M233.939 25.1628C233.261 25.1628 233.105 26.4182 233.939 26.6015C234.745 26.4366 234.342 25.7951 233.939 25.1628Z" fill="white"/>
<path fill-rule="evenodd" clip-rule="evenodd" d="M234.598 10.7947C234.974 10.7947 235.368 10.2083 234.598 10.0708C234.232 10.0708 233.847 10.6573 234.598 10.7947Z" fill="white"/>
<path fill-rule="evenodd" clip-rule="evenodd" d="M235.267 156.585C235.643 156.585 236.037 156.008 235.267 155.871C234.91 155.871 234.516 156.457 235.267 156.585Z" fill="white"/>
<path fill-rule="evenodd" clip-rule="evenodd" d="M237.284 3.6105C236.546 3.63011 235.828 3.37542 235.268 2.89575C235.268 3.8121 234.415 3.88541 234.599 5.04C236.12 5.25076 237.119 4.87506 237.284 3.6105Z" fill="white"/>
<path fill-rule="evenodd" clip-rule="evenodd" d="M236.605 191.067C237.467 191.067 237.522 191.984 238.612 191.791L238.612 190.344C237.696 189.537 236.99 189.574 236.605 191.067Z" fill="white"/>
<path fill-rule="evenodd" clip-rule="evenodd" d="M237.284 8.64126C237.65 8.64126 238.035 8.0548 237.284 7.92651C236.908 7.92651 236.514 8.49465 237.284 8.64126Z" fill="white"/>
<path fill-rule="evenodd" clip-rule="evenodd" d="M241.948 20.8469L239.281 20.8469C238.759 23.596 242.47 23.596 241.948 20.8469Z" fill="white"/>
<path fill-rule="evenodd" clip-rule="evenodd" d="M240.619 32.3379C240.894 29.2223 244.487 33.0984 240.619 32.3379V32.3379Z" fill="white"/>
<path fill-rule="evenodd" clip-rule="evenodd" d="M244.624 114.928C244.807 114.736 244.294 113.856 243.955 114.223C243.763 114.406 244.285 115.304 244.624 114.928Z" fill="white"/>
<path fill-rule="evenodd" clip-rule="evenodd" d="M249.967 1.4479C250.342 1.4479 250.727 0.87977 249.967 0.733154C249.6 0.733154 249.224 1.32878 249.967 1.4479Z" fill="white"/>
<path fill-rule="evenodd" clip-rule="evenodd" d="M251.314 15.8162C253.009 17.5664 254.979 15.523 255.978 14.3775C255.208 14.2584 255.254 13.2504 255.318 12.2241C254.382 12.3907 253.512 12.8151 252.804 13.4498C252.097 14.0844 251.58 14.904 251.314 15.8162Z" fill="white"/>
<path fill-rule="evenodd" clip-rule="evenodd" d="M256.647 169.524C255.034 167.114 258.892 171.256 256.647 169.524V169.524Z" fill="white"/>
<path fill-rule="evenodd" clip-rule="evenodd" d="M259.992 117.082C260.368 117.082 260.743 116.505 259.992 116.376C259.625 116.376 259.231 116.954 259.992 117.082Z" fill="white"/>
<path fill-rule="evenodd" clip-rule="evenodd" d="M261.33 75.4338C261.403 75.5071 262.714 76.121 262.677 76.1485C263.593 75.3696 260.239 72.8772 260.661 75.4338C260.661 75.4338 261.284 75.4338 261.33 75.4338Z" fill="white"/>
<path d="M263.328 230.562L263.328 229.124L261.99 229.124L261.99 230.562L263.328 230.562Z" fill="white"/>
<path fill-rule="evenodd" clip-rule="evenodd" d="M263.328 132.165C263.703 132.165 264.088 131.587 263.328 131.45C262.961 131.45 262.567 132.036 263.328 132.165Z" fill="white"/>
<path fill-rule="evenodd" clip-rule="evenodd" d="M263.997 296.64C264.18 296.438 263.676 295.549 263.328 295.925C263.144 296.127 263.658 297.016 263.997 296.64Z" fill="white"/>
<path fill-rule="evenodd" clip-rule="evenodd" d="M264.666 298.079C265.463 297.969 266.563 298.207 266.663 297.364C266.26 297.318 265.884 297.254 266.004 296.64C265.188 296.722 264.427 296.86 264.666 298.079Z" fill="white"/>
<path fill-rule="evenodd" clip-rule="evenodd" d="M265.298 277.965C263.685 275.564 267.543 279.706 265.298 277.965V277.965Z" fill="white"/>
<path fill-rule="evenodd" clip-rule="evenodd" d="M269.348 119.253C269.541 119.052 269.028 118.154 268.679 118.52C268.487 118.722 268.991 119.62 269.348 119.253Z" fill="white"/>
<path d="M272.684 262.158L272.684 260.728L271.346 260.728L271.346 262.158L272.684 262.158Z" fill="white"/>
<path fill-rule="evenodd" clip-rule="evenodd" d="M273.362 289.456L277.367 289.456C277.578 286.826 274.92 287.284 273.362 286.588L273.362 289.456Z" fill="white"/>
<path fill-rule="evenodd" clip-rule="evenodd" d="M274.022 49.5743C273.839 49.7759 274.343 50.6648 274.691 50.2982C274.874 50.1058 274.37 49.1986 274.022 49.5743Z" fill="white"/>
<path fill-rule="evenodd" clip-rule="evenodd" d="M278.027 76.1484C277.239 76.2584 276.13 76.0201 276.029 76.8724C277.743 76.9365 276.945 79.6764 278.696 79.7405C277.944 77.4863 278.888 77.8345 278.027 76.1484Z" fill="white"/>
<path fill-rule="evenodd" clip-rule="evenodd" d="M278.027 65.3632C278.219 65.1799 277.706 64.291 277.358 64.6576C277.184 64.8592 277.688 65.7572 278.027 65.3632Z" fill="white"/>
<path fill-rule="evenodd" clip-rule="evenodd" d="M278.696 287.302C280.244 287.788 280.134 284.498 278.696 285.149C278.155 285.387 277.889 287.055 278.696 287.302Z" fill="white"/>
<path fill-rule="evenodd" clip-rule="evenodd" d="M278.027 278.689C279.291 278.368 282.059 279.66 281.371 277.25C279.713 277.14 278.127 277.122 278.027 278.689Z" fill="white"/>
<path fill-rule="evenodd" clip-rule="evenodd" d="M285.376 78.3019L285.376 74.7099C284.905 74.7763 284.425 74.7473 283.966 74.6245C283.506 74.5017 283.076 74.2877 282.7 73.9951C282.031 77.1199 284.185 77.2023 285.376 78.3019Z" fill="white"/>
<path fill-rule="evenodd" clip-rule="evenodd" d="M286.045 203.997L286.045 202.513C285.193 202.513 285.129 201.596 284.047 201.807L284.047 203.961L286.045 203.997Z" fill="white"/>
<path fill-rule="evenodd" clip-rule="evenodd" d="M287.383 232.752C288.061 232.752 288.226 231.488 287.383 231.304C287.457 232.12 286.412 232.432 287.383 232.752Z" fill="white"/>
<path fill-rule="evenodd" clip-rule="evenodd" d="M286.723 204.712C286.531 204.914 287.035 205.793 287.383 205.427C287.576 205.225 287.053 204.336 286.723 204.712Z" fill="white"/>
<path fill-rule="evenodd" clip-rule="evenodd" d="M290.041 191.792C289.665 191.792 289.28 192.36 290.041 192.497C290.407 192.497 290.801 191.92 290.041 191.792Z" fill="white"/>
<path fill-rule="evenodd" clip-rule="evenodd" d="M292.057 94.8236C292.433 94.8236 292.818 94.2372 292.057 94.1089C291.69 94.1089 291.296 94.6954 292.057 94.8236Z" fill="white"/>
<path d="M293.395 167.362L293.395 165.923L292.057 165.923L292.057 167.362L293.395 167.362Z" fill="white"/>
<path fill-rule="evenodd" clip-rule="evenodd" d="M292.057 15.8162C291.874 16.0269 292.378 16.9066 292.726 16.5401C292.918 16.3385 292.405 15.4588 292.057 15.8162Z" fill="white"/>
<path fill-rule="evenodd" clip-rule="evenodd" d="M295.402 248.523L295.402 247.084C294.733 247.084 294.604 246.507 294.064 246.369C294.018 247.285 293.211 247.359 293.395 248.523L295.402 248.523Z" fill="white"/>
<path fill-rule="evenodd" clip-rule="evenodd" d="M294.064 15.8162C294.733 15.8162 294.861 16.4026 295.402 16.5401C295.337 15.413 295.484 14.0476 294.064 14.3775L294.064 15.8162Z" fill="white"/>
<path fill-rule="evenodd" clip-rule="evenodd" d="M294.733 191.792L294.733 194.651C296.336 194.944 296.181 193.34 298.068 193.936C297.784 190.729 296.666 192.873 294.733 191.792Z" fill="white"/>
<path fill-rule="evenodd" clip-rule="evenodd" d="M297.372 167.362L298.701 167.362L298.701 165.199C297.509 165.117 297.143 165.923 297.372 167.362Z" fill="white"/>
<path fill-rule="evenodd" clip-rule="evenodd" d="M300.075 173.831C303.2 171.32 302.77 177.496 300.075 173.831V173.831Z" fill="white"/>
<path d="M302.082 152.288L302.082 150.849L300.744 150.849L300.744 152.288L302.082 152.288Z" fill="white"/>
<path fill-rule="evenodd" clip-rule="evenodd" d="M302.751 405.09C303.118 405.09 303.503 404.512 302.751 404.375C302.375 404.375 301.99 404.961 302.751 405.09Z" fill="white"/>
<path d="M306.756 28.7458L306.756 27.3071L304.089 27.3071L304.089 28.7458L306.756 28.7458Z" fill="white"/>
<path fill-rule="evenodd" clip-rule="evenodd" d="M306.087 407.958C305.986 407.115 306.206 405.923 305.418 405.813C305.528 406.647 305.308 407.848 306.087 407.958Z" fill="white"/>
<path fill-rule="evenodd" clip-rule="evenodd" d="M308.094 408.691C307.947 408.141 308.094 407.28 307.425 407.252C307.572 407.811 307.425 408.682 308.094 408.691Z" fill="white"/>
<path fill-rule="evenodd" clip-rule="evenodd" d="M309.432 361.957C309.494 361.499 309.395 361.033 309.15 360.64C308.906 360.246 308.533 359.951 308.094 359.804C308.149 360.931 308.002 362.296 309.432 361.957Z" fill="white"/>
<path fill-rule="evenodd" clip-rule="evenodd" d="M309.432 404.375C309.615 404.173 309.111 403.284 308.763 403.66C308.579 403.853 309.084 404.741 309.432 404.375Z" fill="white"/>
<path fill-rule="evenodd" clip-rule="evenodd" d="M310.101 179.604L311.43 179.604C314.179 176.699 307.571 175.664 310.101 179.604Z" fill="white"/>
<path fill-rule="evenodd" clip-rule="evenodd" d="M311.429 393.599C317.414 393.718 312.419 399.097 311.429 393.599V393.599Z" fill="white"/>
<path fill-rule="evenodd" clip-rule="evenodd" d="M313.446 61.7893C313.803 61.7893 314.197 61.2029 313.446 61.0654C313.061 61.0654 312.685 61.6611 313.446 61.7893Z" fill="white"/>
<path fill-rule="evenodd" clip-rule="evenodd" d="M314.106 103.437C314.298 103.236 313.785 102.347 313.446 102.732C313.253 102.915 313.757 103.813 314.106 103.437Z" fill="white"/>
<path fill-rule="evenodd" clip-rule="evenodd" d="M315.443 409.396C316.121 409.396 316.231 409.983 316.781 410.12C316.717 409.002 316.873 407.628 315.443 407.958L315.443 409.396Z" fill="white"/>
<path fill-rule="evenodd" clip-rule="evenodd" d="M320.126 149.41C320.923 149.264 320.529 148.613 320.126 147.972C319.448 147.972 319.283 149.236 320.126 149.41Z" fill="white"/>
<path fill-rule="evenodd" clip-rule="evenodd" d="M327.476 128.573C328.136 128.573 328.301 127.317 327.476 127.143C327.54 127.949 326.495 128.261 327.476 128.573Z" fill="white"/>
<path fill-rule="evenodd" clip-rule="evenodd" d="M327.476 154.441C327.915 151.142 331.517 155.009 327.476 154.441V154.441Z" fill="white"/>
<path fill-rule="evenodd" clip-rule="evenodd" d="M329.446 25.8777C327.833 23.4677 331.691 27.6188 329.446 25.8777V25.8777Z" fill="white"/>
<path fill-rule="evenodd" clip-rule="evenodd" d="M330.802 137.919C330.995 137.727 330.491 136.829 330.133 137.195C329.95 137.397 330.463 138.286 330.802 137.919Z" fill="white"/>
<path d="M332.809 50.2983L332.809 48.8596L331.471 48.8596L331.471 50.2983L332.809 50.2983Z" fill="white"/>
<path fill-rule="evenodd" clip-rule="evenodd" d="M332.809 48.1357C333.002 47.9433 332.488 47.0544 332.149 47.4209C331.966 47.6225 332.47 48.5114 332.809 48.1357Z" fill="white"/>
<path fill-rule="evenodd" clip-rule="evenodd" d="M0.0640412 128.619C1.20038 129.847 3.06984 128.206 4.07788 127.18C3.05151 126.08 -0.504128 125.897 0.0640412 128.619Z" fill="white"/>
<path fill-rule="evenodd" clip-rule="evenodd" d="M4.07788 308.892C3.97708 308.049 4.18786 306.857 3.39975 306.729C3.50972 307.581 3.28978 308.782 4.07788 308.892Z" fill="white"/>
<path fill-rule="evenodd" clip-rule="evenodd" d="M4.74683 23.0461C4.59104 22.4963 4.74684 21.6257 4.0687 21.6074C4.21532 22.1572 4.06869 23.0278 4.74683 23.0461Z" fill="white"/>
<path fill-rule="evenodd" clip-rule="evenodd" d="M6.07556 295.247C6.25884 295.055 5.74567 294.166 5.40661 294.532C5.22333 294.734 5.72733 295.614 6.07556 295.247Z" fill="white"/>
<path d="M12.7563 244.252L12.7563 242.814L11.4093 242.814L11.4093 244.252L12.7563 244.252Z" fill="white"/>
<path fill-rule="evenodd" clip-rule="evenodd" d="M12.0873 19.4541C11.4091 19.4541 11.2533 20.7187 12.0873 20.8928C12.9029 20.737 12.4996 20.0955 12.0873 19.4541Z" fill="white"/>
<path fill-rule="evenodd" clip-rule="evenodd" d="M12.7563 5.09501C13.1228 5.09501 13.5169 4.49938 12.7563 4.37109C12.3897 4.37109 11.9956 4.94839 12.7563 5.09501Z" fill="white"/>
<path fill-rule="evenodd" clip-rule="evenodd" d="M13.4253 150.886C13.801 150.886 14.1859 150.299 13.4253 150.171C13.0588 150.171 12.6647 150.748 13.4253 150.886Z" fill="white"/>
<path fill-rule="evenodd" clip-rule="evenodd" d="M14.7541 185.368C15.6155 185.368 15.6705 186.284 16.761 186.083L16.761 184.635C15.8446 183.838 15.139 183.874 14.7541 185.368Z" fill="white"/>
<path fill-rule="evenodd" clip-rule="evenodd" d="M15.432 2.93228C15.7986 2.93228 16.1835 2.35498 15.432 2.21753C15.0563 2.21753 14.6622 2.79483 15.432 2.93228Z" fill="white"/>
<path fill-rule="evenodd" clip-rule="evenodd" d="M20.1056 15.1382L17.4389 15.1382C16.9074 17.8872 20.6279 17.8872 20.1056 15.1382Z" fill="white"/>
<path fill-rule="evenodd" clip-rule="evenodd" d="M18.7863 26.629C19.0703 23.5226 22.6626 27.3896 18.7863 26.629V26.629Z" fill="white"/>
<path fill-rule="evenodd" clip-rule="evenodd" d="M22.7816 109.219C22.9557 109.036 22.4517 108.147 22.1035 108.523C21.9202 108.706 22.4334 109.595 22.7816 109.219Z" fill="white"/>
<path fill-rule="evenodd" clip-rule="evenodd" d="M29.4621 10.0799C31.1666 11.8301 33.1277 9.78664 34.1357 8.64121C33.3568 8.52208 33.4118 7.5141 33.4668 6.48779C32.531 6.65433 31.6603 7.07882 30.9528 7.71346C30.2452 8.3481 29.729 9.16767 29.4621 10.0799Z" fill="white"/>
<path fill-rule="evenodd" clip-rule="evenodd" d="M32.1288 297.4C31.9455 297.602 32.4587 298.5 32.7977 298.124C32.981 297.923 32.477 297.025 32.1288 297.4Z" fill="white"/>
<path fill-rule="evenodd" clip-rule="evenodd" d="M34.8048 163.825C33.1828 161.405 37.05 165.556 34.8048 163.825V163.825Z" fill="white"/>
<path fill-rule="evenodd" clip-rule="evenodd" d="M38.1406 111.382C38.5164 111.382 38.9013 110.805 38.1406 110.667C37.7741 110.667 37.3892 111.254 38.1406 111.382Z" fill="white"/>
<path fill-rule="evenodd" clip-rule="evenodd" d="M39.4786 69.7341C39.5611 69.7982 40.8623 70.4122 40.8257 70.4488C41.7879 69.6699 38.3881 67.1775 38.8188 69.7341C38.8188 69.7341 39.4328 69.7341 39.4786 69.7341Z" fill="white"/>
<path d="M41.4854 224.862L41.4854 223.424L40.1474 223.424L40.1474 224.862L41.4854 224.862Z" fill="white"/>
<path fill-rule="evenodd" clip-rule="evenodd" d="M41.4854 126.456C41.8611 126.456 42.246 125.879 41.4854 125.741C41.1188 125.741 40.7248 126.328 41.4854 126.456Z" fill="white"/>
<path fill-rule="evenodd" clip-rule="evenodd" d="M42.1544 290.931C42.3377 290.739 41.8337 289.85 41.4855 290.225C41.3022 290.418 41.8062 291.316 42.1544 290.931Z" fill="white"/>
<path fill-rule="evenodd" clip-rule="evenodd" d="M42.8233 292.379C43.6114 292.269 44.7111 292.498 44.821 291.655C44.4178 291.655 44.033 291.545 44.1613 290.931C43.3365 291.023 42.5759 291.16 42.8233 292.379Z" fill="white"/>
<path fill-rule="evenodd" clip-rule="evenodd" d="M43.4831 272.265C41.8702 269.855 45.7283 274.006 43.4831 272.265V272.265Z" fill="white"/>
<path fill-rule="evenodd" clip-rule="evenodd" d="M44.1612 325.404L44.1612 326.843C44.8302 326.843 44.9585 327.429 45.49 327.567C45.435 326.44 45.5908 325.083 44.1612 325.404Z" fill="white"/>
<path fill-rule="evenodd" clip-rule="evenodd" d="M48.166 382.117C48.234 381.66 48.1378 381.194 47.8945 380.801C47.6512 380.408 47.2766 380.115 46.8372 379.972C46.8921 381.09 46.7364 382.447 48.166 382.117Z" fill="white"/>
<path fill-rule="evenodd" clip-rule="evenodd" d="M47.4971 315.361C47.6896 315.159 47.1764 314.261 46.8373 314.637C46.6357 314.839 47.1489 315.727 47.4971 315.361Z" fill="white"/>
<path fill-rule="evenodd" clip-rule="evenodd" d="M47.4971 113.545C47.6896 113.343 47.1764 112.454 46.8373 112.821C46.6357 113.013 47.1489 113.911 47.4971 113.545Z" fill="white"/>
<path d="M50.8328 256.467L50.8328 255.029L49.504 255.029L49.504 256.467L50.8328 256.467Z" fill="white"/>
<path fill-rule="evenodd" clip-rule="evenodd" d="M51.5111 283.756L55.5157 283.756C55.7357 281.117 53.0781 281.584 51.5111 280.888L51.5111 283.756Z" fill="white"/>
<path fill-rule="evenodd" clip-rule="evenodd" d="M52.1797 139.395C50.5577 136.994 54.4158 141.127 52.1797 139.395V139.395Z" fill="white"/>
<path fill-rule="evenodd" clip-rule="evenodd" d="M52.1798 43.8748C51.9873 44.0673 52.5005 44.9561 52.8487 44.5896C53.0228 44.3972 52.528 43.4991 52.1798 43.8748Z" fill="white"/>
<path fill-rule="evenodd" clip-rule="evenodd" d="M54.1776 135.088C54.3609 134.886 53.8477 133.997 53.5087 134.373C53.3254 134.565 53.8294 135.464 54.1776 135.088Z" fill="white"/>
<path fill-rule="evenodd" clip-rule="evenodd" d="M54.1776 349.128C53.9943 349.321 54.5075 350.209 54.8465 349.843C55.0298 349.641 54.5258 348.752 54.1776 349.128Z" fill="white"/>
<path fill-rule="evenodd" clip-rule="evenodd" d="M56.1752 70.4487C55.3871 70.5587 54.2783 70.3204 54.1775 71.1635C55.8912 71.2368 55.0939 73.9675 56.8442 74.0408C56.0928 71.7866 57.0458 72.1348 56.1752 70.4487Z" fill="white"/>
<path fill-rule="evenodd" clip-rule="evenodd" d="M56.1752 59.6635C56.3768 59.4802 55.8636 58.5822 55.5154 58.9579C55.3321 59.1595 55.8361 60.0575 56.1752 59.6635Z" fill="white"/>
<path fill-rule="evenodd" clip-rule="evenodd" d="M56.8444 281.603C58.4023 282.079 58.2923 278.799 56.8444 279.44C56.3129 279.688 56.0471 281.355 56.8444 281.603Z" fill="white"/>
<path fill-rule="evenodd" clip-rule="evenodd" d="M56.1753 272.98C57.4399 272.668 60.2075 273.951 59.5294 271.55C57.8615 271.44 56.2761 271.413 56.1753 272.98Z" fill="white"/>
<path fill-rule="evenodd" clip-rule="evenodd" d="M62.1962 184.635C62.3886 183.004 62.0312 181.941 60.8582 181.767C61.014 183.132 60.1068 183.352 60.1893 184.635L62.1962 184.635Z" fill="white"/>
<path fill-rule="evenodd" clip-rule="evenodd" d="M60.8581 135.803C61.2246 135.803 61.6187 135.225 60.8581 135.088C60.4915 135.088 60.0974 135.656 60.8581 135.803Z" fill="white"/>
<path fill-rule="evenodd" clip-rule="evenodd" d="M63.5249 72.6022L63.5249 69.0102C63.0552 69.0775 62.5767 69.0488 62.1183 68.926C61.66 68.8031 61.2312 68.5886 60.8581 68.2954C60.18 71.4202 62.3336 71.4935 63.5249 72.6022Z" fill="white"/>
<path fill-rule="evenodd" clip-rule="evenodd" d="M64.1938 198.288L64.1938 196.85C63.3416 196.85 63.2775 195.933 62.1961 196.135L62.1961 198.288L64.1938 198.288Z" fill="white"/>
<path fill-rule="evenodd" clip-rule="evenodd" d="M63.5248 326.128C64.3862 326.128 64.4412 327.044 65.5317 326.843L65.5317 325.404C64.6153 324.616 63.9097 324.643 63.5248 326.128Z" fill="white"/>
<path fill-rule="evenodd" clip-rule="evenodd" d="M64.8627 337.628C65.0459 337.436 64.5419 336.528 64.1937 336.904C64.0104 337.097 64.5236 337.995 64.8627 337.628Z" fill="white"/>
<path fill-rule="evenodd" clip-rule="evenodd" d="M65.5226 227.025C66.2007 227.025 66.3657 225.751 65.5226 225.577C65.5959 226.393 64.5512 226.695 65.5226 227.025Z" fill="white"/>
<path fill-rule="evenodd" clip-rule="evenodd" d="M64.8628 199.012C64.6887 199.214 65.1927 200.094 65.5317 199.727C65.7334 199.525 65.211 198.637 64.8628 199.012Z" fill="white"/>
<path d="M68.2078 168.122L68.2078 166.693L66.8698 166.693L66.8698 168.122L68.2078 168.122Z" fill="white"/>
<path fill-rule="evenodd" clip-rule="evenodd" d="M68.2077 186.083C67.8411 186.083 67.4471 186.66 68.2077 186.797C68.5742 186.797 68.9683 186.22 68.2077 186.083Z" fill="white"/>
<path fill-rule="evenodd" clip-rule="evenodd" d="M70.2055 89.1239C70.5904 89.1239 70.9752 88.5375 70.2055 88.4092C69.8389 88.4092 69.454 88.9956 70.2055 89.1239Z" fill="white"/>
<path d="M71.5525 161.662L71.5525 160.223L70.2145 160.223L70.2145 161.662L71.5525 161.662Z" fill="white"/>
<path fill-rule="evenodd" clip-rule="evenodd" d="M70.2053 10.0798C70.0312 10.2814 70.5353 11.1703 70.8744 10.8038C71.0668 10.6022 70.5536 9.7133 70.2053 10.0798Z" fill="white"/>
<path fill-rule="evenodd" clip-rule="evenodd" d="M72.2122 358.438C72.3955 358.246 71.8915 357.366 71.5525 357.723C71.36 357.934 71.8732 358.823 72.2122 358.438Z" fill="white"/>
<path fill-rule="evenodd" clip-rule="evenodd" d="M73.5503 242.832L73.5503 241.402C72.8905 241.402 72.7622 240.825 72.2123 240.688C72.2123 241.604 71.3601 241.677 71.5525 242.832L73.5503 242.832Z" fill="white"/>
<path fill-rule="evenodd" clip-rule="evenodd" d="M72.2123 10.0798C72.8905 10.0798 73.0096 10.6663 73.5503 10.8038C73.4861 9.66749 73.6419 8.31129 72.2123 8.64118L72.2123 10.0798Z" fill="white"/>
<path fill-rule="evenodd" clip-rule="evenodd" d="M72.8537 186.083L72.8537 188.951C74.4574 189.244 74.3017 187.64 76.1895 188.227C75.8962 185.029 74.7782 187.164 72.8537 186.083Z" fill="white"/>
<path fill-rule="evenodd" clip-rule="evenodd" d="M75.5571 161.662L76.895 161.662L76.895 159.499C75.6945 159.408 75.328 160.223 75.5571 161.662Z" fill="white"/>
<path fill-rule="evenodd" clip-rule="evenodd" d="M76.2262 38.8441C76.4186 38.6425 75.9054 37.7628 75.5572 38.1294C75.3739 38.3218 75.8688 39.2106 76.2262 38.8441Z" fill="white"/>
<path fill-rule="evenodd" clip-rule="evenodd" d="M76.8951 193.258C77.0692 193.056 76.5652 192.176 76.2261 192.534C76.0337 192.735 76.5469 193.633 76.8951 193.258Z" fill="white"/>
<path d="M78.2332 199.727L78.2332 198.288L76.8952 198.288L76.8952 199.727L78.2332 199.727Z" fill="white"/>
<path fill-rule="evenodd" clip-rule="evenodd" d="M78.2331 168.122C81.3488 165.62 80.9181 171.787 78.2331 168.122V168.122Z" fill="white"/>
<path fill-rule="evenodd" clip-rule="evenodd" d="M79.5618 202.595C79.4151 202.036 79.5617 201.175 78.9019 201.156C79.0486 201.715 78.902 202.577 79.5618 202.595Z" fill="white"/>
<path d="M80.2307 146.579L80.2307 145.14L78.9019 145.14L78.9019 146.579L80.2307 146.579Z" fill="white"/>
<path fill-rule="evenodd" clip-rule="evenodd" d="M79.5618 39.5679C79.9375 39.5679 80.3224 38.9814 79.5618 38.844C79.1952 38.844 78.8103 39.4305 79.5618 39.5679Z" fill="white"/>
<path fill-rule="evenodd" clip-rule="evenodd" d="M80.8998 399.381C81.2664 399.381 81.6604 398.813 80.8998 398.675C80.5332 398.675 80.1392 399.262 80.8998 399.381Z" fill="white"/>
<path d="M84.9045 23.0461L84.9045 21.6074L82.2378 21.6074L82.2378 23.0461L84.9045 23.0461Z" fill="white"/>
<path fill-rule="evenodd" clip-rule="evenodd" d="M84.2446 402.276C84.1347 401.424 84.3546 400.224 83.5757 400.123C83.6765 400.957 83.4565 402.157 84.2446 402.276Z" fill="white"/>
<path fill-rule="evenodd" clip-rule="evenodd" d="M86.2515 402.982C86.1048 402.423 86.2515 401.562 85.5825 401.543C85.7291 402.102 85.5825 402.964 86.2515 402.982Z" fill="white"/>
<path fill-rule="evenodd" clip-rule="evenodd" d="M86.2516 250.007C86.4349 249.805 85.9309 248.907 85.5826 249.283C85.3902 249.485 85.9033 250.373 86.2516 250.007Z" fill="white"/>
<path fill-rule="evenodd" clip-rule="evenodd" d="M87.5804 398.675C87.7637 398.464 87.2597 397.575 86.9115 397.951C86.7282 398.153 87.2322 399.042 87.5804 398.675Z" fill="white"/>
<path fill-rule="evenodd" clip-rule="evenodd" d="M88.2494 173.868L89.5873 173.868C92.2815 170.963 85.7293 169.928 88.2494 173.868Z" fill="white"/>
<path fill-rule="evenodd" clip-rule="evenodd" d="M89.5872 311.76C89.7705 311.567 89.2665 310.669 88.9274 311.045C88.735 311.256 89.239 312.135 89.5872 311.76Z" fill="white"/>
<path fill-rule="evenodd" clip-rule="evenodd" d="M89.5873 387.89C95.5714 388.009 90.5679 393.388 89.5873 387.89V387.89Z" fill="white"/>
<path fill-rule="evenodd" clip-rule="evenodd" d="M91.6033 56.0805C91.9607 56.0805 92.3455 55.5032 91.6033 55.3657C91.2184 55.3657 90.8335 55.9522 91.6033 56.0805Z" fill="white"/>
<path fill-rule="evenodd" clip-rule="evenodd" d="M93.592 403.697C94.2701 403.697 94.3893 404.283 94.9299 404.421C94.8749 403.294 95.0216 401.928 93.592 402.258L93.592 403.697Z" fill="white"/>
<path d="M96.2678 297.4L96.2678 295.971L94.939 295.971L94.939 297.4L96.2678 297.4Z" fill="white"/>
<path fill-rule="evenodd" clip-rule="evenodd" d="M97.5965 265.796C97.7798 265.594 97.2758 264.714 96.9276 265.081C96.7443 265.283 97.2483 266.171 97.5965 265.796Z" fill="white"/>
<path fill-rule="evenodd" clip-rule="evenodd" d="M99.6037 186.083C100.282 186.083 100.456 184.818 99.6037 184.635C99.6679 185.459 98.6323 185.771 99.6037 186.083Z" fill="white"/>
<path d="M102.27 323.975L102.27 321.812L100.273 321.812L100.273 323.975L102.27 323.975Z" fill="white"/>
<path fill-rule="evenodd" clip-rule="evenodd" d="M105.615 122.873C106.293 122.873 106.458 121.618 105.615 121.434C105.698 122.25 104.699 122.571 105.615 122.873Z" fill="white"/>
<path fill-rule="evenodd" clip-rule="evenodd" d="M107.622 20.1596C106.009 17.7497 109.867 21.8915 107.622 20.1596V20.1596Z" fill="white"/>
<path fill-rule="evenodd" clip-rule="evenodd" d="M108.96 132.211C109.143 132.027 108.639 131.129 108.291 131.487C108.108 131.698 108.621 132.577 108.96 132.211Z" fill="white"/>
<path d="M110.967 44.5895L110.967 43.1509L109.629 43.1509L109.629 44.5895L110.967 44.5895Z" fill="white"/>
<path fill-rule="evenodd" clip-rule="evenodd" d="M110.967 42.4362C111.15 42.2346 110.637 41.3549 110.307 41.7214C110.115 41.923 110.628 42.8119 110.967 42.4362Z" fill="white"/>
</g>
</svg>
