<svg width="48" height="48" viewBox="0 0 48 48" fill="none" xmlns="http://www.w3.org/2000/svg">
<path d="M23.1534 5.80948L25.4773 5.18678C26.2857 4.97019 27.0011 5.01313 27.6236 5.31561C28.2708 5.57538 28.6892 6.05891 28.8787 6.7662C29.0502 7.40613 28.9251 8.01722 28.5035 8.59946C28.1156 9.17267 27.5175 9.56758 26.7092 9.78417L24.5873 10.3527C24.0148 10.5061 23.4951 10.7898 23.0284 11.2036C22.5954 11.6084 22.2872 12.1422 22.1039 12.8051C21.9205 13.4679 21.9461 14.2371 22.1807 15.1128L22.5868 16.6284C22.8125 17.4705 23.1659 18.1158 23.6471 18.5644C24.162 19.004 24.7249 19.2864 25.336 19.4114C25.9381 19.5028 26.4917 19.4808 26.9969 19.3454L28.8662 18.8445C29.8092 18.5919 30.6347 18.6414 31.3427 18.9932C32.0843 19.336 32.5634 19.9115 32.78 20.7198L33.9442 25.0646C34.1517 25.8393 34.0751 26.5637 33.7143 27.238C33.3781 27.8695 32.8901 28.271 32.2502 28.4425C31.5766 28.623 30.9195 28.5283 30.2789 28.1585C29.663 27.746 29.2512 27.1524 29.0437 26.3777L28.448 24.1548C28.3849 23.919 28.2522 23.8282 28.0502 23.8824L26.9757 24.1161C25.5948 24.4861 24.2752 24.4787 23.0169 24.0939C21.7923 23.7001 20.7235 23.0118 19.8104 22.0291C18.8883 21.0127 18.2332 19.7804 17.8452 18.3322L17.3037 16.3113C16.8049 14.3152 16.7972 12.6025 17.2807 11.1734C17.7978 9.73532 18.6027 8.56302 19.6955 7.65654C20.7883 6.75006 21.9409 6.13437 23.1534 5.80948ZM34.5244 36.93C33.7834 37.1285 33.105 37.0215 32.4891 36.609C31.9068 36.1874 31.5333 35.6017 31.3684 34.8517L31.3007 34.5991C31.0685 33.8671 31.0991 33.173 31.3926 32.5168C31.7197 31.8516 32.2537 31.4197 32.9947 31.2212C33.7694 31.0136 34.4478 31.1206 35.03 31.5422C35.6123 31.9637 36.0027 32.545 36.2012 33.286L36.2689 33.5386C36.4675 34.2795 36.42 34.9781 36.1265 35.6343C35.8331 36.2905 35.299 36.7224 34.5244 36.93Z" fill="#1EAC9E"/>
<path d="M15.0838 26.1856L16.5455 25.794C17.0538 25.6578 17.4979 25.6628 17.8776 25.8089C18.2737 25.9316 18.5219 26.1798 18.622 26.5534C18.7126 26.8914 18.6194 27.2215 18.3424 27.5436C18.0867 27.8601 17.7046 28.0864 17.1962 28.2226L15.8617 28.5802C15.5016 28.6767 15.1711 28.8415 14.8704 29.0747C14.5908 29.3021 14.3856 29.5955 14.2548 29.9547C14.124 30.3139 14.1206 30.7249 14.2445 31.1875L14.4591 31.9881C14.5783 32.4329 14.7819 32.7693 15.07 32.9972C15.3793 33.2194 15.7225 33.3563 16.0995 33.4078C16.4718 33.4415 16.8168 33.4158 17.1346 33.3307L18.3102 33.0157C18.9033 32.8568 19.4157 32.8625 19.8473 33.0329C20.3001 33.1976 20.5837 33.4935 20.6981 33.9205L21.3131 36.2157C21.4228 36.6249 21.3569 37.0144 21.1154 37.3842C20.8904 37.7306 20.5766 37.9577 20.1741 38.0655C19.7505 38.179 19.344 38.1449 18.9548 37.9632C18.582 37.7579 18.3407 37.4507 18.2311 37.0415L17.9164 35.8672C17.883 35.7427 17.8028 35.6974 17.6757 35.7315L17.0013 35.8836C16.1328 36.1163 15.312 36.1456 14.5388 35.9713C13.7868 35.7915 13.1391 35.4501 12.5957 34.9474C12.0475 34.4268 11.671 33.784 11.466 33.0189L11.1799 31.9514C10.9198 30.896 10.9582 29.9799 11.2949 29.2032C11.6529 28.4208 12.1832 27.7733 12.8859 27.2608C13.5886 26.7484 14.3213 26.39 15.0838 26.1856ZM21.3755 42.5491C20.9095 42.674 20.4901 42.6338 20.1172 42.4286C19.7656 42.2177 19.5479 41.9137 19.4642 41.5166L19.4285 41.3832C19.3024 40.9974 19.3389 40.6253 19.538 40.2669C19.7583 39.9027 20.1014 39.6582 20.5675 39.5333C21.0547 39.4028 21.4741 39.443 21.8257 39.6539C22.1774 39.8647 22.4057 40.1659 22.5105 40.5573L22.5463 40.6908C22.6512 41.0822 22.6041 41.4571 22.405 41.8156C22.2059 42.1741 21.8627 42.4186 21.3755 42.5491Z" fill="#1EAC9E"/>
</svg>
