<svg width="274" height="277" viewBox="0 0 274 277" fill="none" xmlns="http://www.w3.org/2000/svg">
<path d="M228.992 379C255.692 369.616 263.949 346.756 269.251 320.398C277.102 281.374 267.771 229.211 245.932 195.75C226.117 165.391 188.736 159.611 157.478 175.501C134.413 187.227 117.702 209.92 111.59 234.907C108.68 246.801 112.735 260.006 126.707 261.583C145.337 263.684 151.964 243.905 149.169 229.336C141.802 190.928 104.249 152.13 62.592 163.181C52.2973 165.912 35.8781 172.446 32.7858 184.233C31.0894 190.699 33.7207 198.131 40.827 199.446C66.7776 204.247 55.3673 164.232 49.5116 153.807C31.1684 121.152 -7.94526 143.509 -36.7975 144.058C-64.6691 144.588 -93.0016 133.629 -109.812 110.74C-133.856 78.0006 -124.261 37.9631 -115.494 2.00001" stroke="#0F9C8E" stroke-width="3" stroke-linecap="round" stroke-linejoin="round"/>
</svg>
